<svg width="24" height="24" viewBox="0 0 24 24" fill="none" xmlns="http://www.w3.org/2000/svg">
<path d="M21 16.0901V11.0981C21 6.80812 21 4.66512 19.682 3.33212C18.364 2.00012 16.242 2.00012 12 2.00012C7.757 2.00012 5.636 2.00012 4.318 3.33212C3 4.66512 3 6.81012 3 11.0981V16.0911C3 19.1871 3 20.7361 3.734 21.4121C4.084 21.7351 4.526 21.9381 4.997 21.9921C5.984 22.1051 7.137 21.0851 9.442 19.0461C10.462 18.1451 10.971 17.6941 11.56 17.5761C11.85 17.5161 12.15 17.5161 12.44 17.5761C13.03 17.6941 13.539 18.1451 14.558 19.0461C16.863 21.0851 18.016 22.1051 19.003 21.9911C19.473 21.9381 19.916 21.7351 20.266 21.4121C21 20.7361 21 19.1871 21 16.0901Z" stroke="#8E8E8E" stroke-width="2"/>
<path d="M15 6.00012H9" stroke="#8E8E8E" stroke-width="2" stroke-linecap="round"/>
</svg>
