<svg width="24" height="24" viewBox="0 0 24 24" fill="none" xmlns="http://www.w3.org/2000/svg">
<path d="M7 21.0001C6.45 21.0001 5.97933 20.8045 5.588 20.4131C5.19667 20.0218 5.00067 19.5508 5 19.0001L5 6.00012H4L4 4.00012L9 4.00012V3.00012L15 3.00012V4.00012L20 4.00012V6.00012L19 6.00012V19.0001C19 19.5501 18.8043 20.0211 18.413 20.4131C18.0217 20.8051 17.5507 21.0008 17 21.0001L7 21.0001ZM17 6.00012L7 6.00012L7 19.0001L17 19.0001V6.00012ZM9 17.0001H11L11 8.00012H9L9 17.0001ZM13 17.0001H15L15 8.00012H13L13 17.0001Z" fill="#8E8E8E"/>
</svg>
