<svg width="17" height="17" viewBox="0 0 17 17" fill="none" xmlns="http://www.w3.org/2000/svg">
<path d="M8.5 16.5C6.26667 16.5 4.375 15.725 2.825 14.175C1.275 12.625 0.5 10.7333 0.5 8.5C0.5 6.26667 1.275 4.375 2.825 2.825C4.375 1.275 6.26667 0.5 8.5 0.5C9.65 0.5 10.75 0.737333 11.8 1.212C12.85 1.68667 13.75 2.366 14.5 3.25V0.5H16.5V7.5H9.5V5.5H13.7C13.1667 4.56667 12.4377 3.83333 11.513 3.3C10.5883 2.76667 9.584 2.5 8.5 2.5C6.83333 2.5 5.41667 3.08333 4.25 4.25C3.08333 5.41667 2.5 6.83333 2.5 8.5C2.5 10.1667 3.08333 11.5833 4.25 12.75C5.41667 13.9167 6.83333 14.5 8.5 14.5C9.78333 14.5 10.9417 14.1333 11.975 13.4C13.0083 12.6667 13.7333 11.7 14.15 10.5H16.25C15.7833 12.2667 14.8333 13.7083 13.4 14.825C11.9667 15.9417 10.3333 16.5 8.5 16.5Z" fill="black"/>
</svg>
