<svg width="123" height="32" viewBox="0 0 123 32" fill="none" xmlns="http://www.w3.org/2000/svg">
    <g clip-path="url(#clip0_29_164)">
        <path d="M19.8321 1.54295L16.7624 0.720428L14.1756 10.3747L11.8401 1.65876L8.77039 2.48129L11.2937 11.8982L5.00872 5.61329L2.76154 7.86046L9.65538 14.7544L1.0702 12.4539L0.247681 15.5236L9.62807 18.0371C9.52067 17.5739 9.46385 17.0912 9.46385 16.5953C9.46385 13.085 12.3095 10.2393 15.8198 10.2393C19.3302 10.2393 22.1758 13.085 22.1758 16.5953C22.1758 17.088 22.1197 17.5677 22.0136 18.0282L30.5387 20.3124L31.3611 17.2428L21.9435 14.7193L30.5292 12.4187L29.7067 9.34909L20.2894 11.8724L26.5743 5.58749L24.3271 3.34031L17.5289 10.1386L19.8321 1.54295Z" fill="#FC5A32"/>
        <path d="M22.0053 18.0639C21.7421 19.1766 21.1865 20.1762 20.4241 20.977L26.6001 27.1531L28.8473 24.9059L22.0053 18.0639Z" fill="#FC5A32"/>
        <path d="M20.3617 21.0416C19.5901 21.8297 18.6151 22.4178 17.5216 22.7209L19.7689 31.108L22.8386 30.2854L20.3617 21.0416Z" fill="#FC5A32"/>
        <path d="M17.407 22.7515C16.8996 22.882 16.3679 22.9513 15.8199 22.9513C15.2328 22.9513 14.6643 22.8717 14.1246 22.7227L11.8752 31.1174L14.9449 31.9399L17.407 22.7515Z" fill="#FC5A32"/>
        <path d="M14.0161 22.6917C12.9393 22.3735 11.9816 21.7779 11.2257 20.9876L5.03455 27.1788L7.28172 29.426L14.0161 22.6917Z" fill="#FC5A32"/>
        <path d="M11.1741 20.9329C10.4313 20.1376 9.89014 19.1514 9.63258 18.0559L1.07971 20.3476L1.90223 23.4173L11.1741 20.9329Z" fill="#FC5A32"/>
    </g>
    <path d="M41.728 24.5V7.628H44.992V24.5H41.728ZM44.128 24.5V21.62H53.464V24.5H44.128ZM44.128 17.276V14.492H52.624V17.276H44.128ZM44.128 10.508V7.628H53.344V10.508H44.128ZM61.1609 24.74C59.9769 24.74 58.9129 24.476 57.9689 23.948C57.0249 23.42 56.2809 22.7 55.7369 21.788C55.1929 20.876 54.9209 19.852 54.9209 18.716C54.9209 17.564 55.1929 16.532 55.7369 15.62C56.2809 14.708 57.0249 13.988 57.9689 13.46C58.9289 12.916 59.9929 12.644 61.1609 12.644C62.0729 12.644 62.9129 12.812 63.6809 13.148C64.4489 13.484 65.1129 13.964 65.6729 14.588L63.6569 16.628C63.3529 16.292 62.9849 16.036 62.5529 15.86C62.1369 15.684 61.6729 15.596 61.1609 15.596C60.5849 15.596 60.0649 15.732 59.6009 16.004C59.1529 16.26 58.7929 16.62 58.5209 17.084C58.2649 17.532 58.1369 18.068 58.1369 18.692C58.1369 19.3 58.2649 19.844 58.5209 20.324C58.7929 20.788 59.1529 21.156 59.6009 21.428C60.0649 21.684 60.5849 21.812 61.1609 21.812C61.6889 21.812 62.1609 21.724 62.5769 21.548C63.0089 21.356 63.3769 21.084 63.6809 20.732L65.7209 22.772C65.1289 23.412 64.4489 23.9 63.6809 24.236C62.9129 24.572 62.0729 24.74 61.1609 24.74ZM72.6916 24.74C71.5236 24.74 70.4676 24.476 69.5236 23.948C68.5956 23.404 67.8516 22.676 67.2916 21.764C66.7476 20.836 66.4756 19.804 66.4756 18.668C66.4756 17.532 66.7476 16.516 67.2916 15.62C67.8356 14.708 68.5796 13.988 69.5236 13.46C70.4676 12.916 71.5156 12.644 72.6676 12.644C73.8516 12.644 74.9076 12.916 75.8356 13.46C76.7796 13.988 77.5236 14.708 78.0676 15.62C78.6116 16.516 78.8836 17.532 78.8836 18.668C78.8836 19.804 78.6116 20.836 78.0676 21.764C77.5236 22.676 76.7796 23.404 75.8356 23.948C74.9076 24.476 73.8596 24.74 72.6916 24.74ZM72.6676 21.812C73.2596 21.812 73.7796 21.684 74.2276 21.428C74.6916 21.156 75.0436 20.788 75.2836 20.324C75.5396 19.844 75.6676 19.3 75.6676 18.692C75.6676 18.084 75.5396 17.548 75.2836 17.084C75.0276 16.62 74.6756 16.26 74.2276 16.004C73.7796 15.732 73.2596 15.596 72.6676 15.596C72.0916 15.596 71.5796 15.732 71.1316 16.004C70.6836 16.26 70.3316 16.62 70.0756 17.084C69.8196 17.548 69.6916 18.084 69.6916 18.692C69.6916 19.3 69.8196 19.844 70.0756 20.324C70.3316 20.788 70.6836 21.156 71.1316 21.428C71.5796 21.684 72.0916 21.812 72.6676 21.812ZM83.6436 24.5V21.836H88.0356C88.8196 21.836 89.4276 21.596 89.8596 21.116C90.3076 20.636 90.5316 20.068 90.5316 19.412C90.5316 18.964 90.4356 18.556 90.2436 18.188C90.0516 17.82 89.7636 17.532 89.3796 17.324C89.0116 17.1 88.5636 16.988 88.0356 16.988H83.6436V14.348H87.6756C88.3476 14.348 88.8836 14.18 89.2836 13.844C89.6996 13.508 89.9076 13.004 89.9076 12.332C89.9076 11.644 89.6996 11.132 89.2836 10.796C88.8836 10.46 88.3476 10.292 87.6756 10.292H83.6436V7.628H88.0596C89.1796 7.628 90.1156 7.836 90.8676 8.252C91.6356 8.652 92.2116 9.188 92.5956 9.86C92.9796 10.516 93.1716 11.236 93.1716 12.02C93.1716 12.98 92.8756 13.812 92.2836 14.516C91.7076 15.204 90.8596 15.716 89.7396 16.052L89.8836 14.996C91.1316 15.348 92.0916 15.932 92.7636 16.748C93.4516 17.548 93.7956 18.516 93.7956 19.652C93.7956 20.548 93.5716 21.364 93.1236 22.1C92.6916 22.82 92.0516 23.404 91.2036 23.852C90.3716 24.284 89.3556 24.5 88.1556 24.5H83.6436ZM81.2436 24.5V7.628H84.4836V24.5H81.2436ZM96.0483 24.5V12.908H99.2163V24.5H96.0483ZM97.6323 11.036C97.1203 11.036 96.6963 10.868 96.3603 10.532C96.0243 10.18 95.8563 9.748 95.8563 9.236C95.8563 8.74 96.0243 8.316 96.3603 7.964C96.6963 7.612 97.1203 7.436 97.6323 7.436C98.1603 7.436 98.5843 7.612 98.9043 7.964C99.2403 8.316 99.4083 8.74 99.4083 9.236C99.4083 9.748 99.2403 10.18 98.9043 10.532C98.5843 10.868 98.1603 11.036 97.6323 11.036ZM103.705 24.5V8.084H106.849V24.5H103.705ZM100.993 15.668V12.908H109.561V15.668H100.993ZM116.592 24.74C115.376 24.74 114.296 24.484 113.352 23.972C112.408 23.444 111.656 22.724 111.096 21.812C110.552 20.9 110.28 19.86 110.28 18.692C110.28 17.54 110.544 16.516 111.072 15.62C111.616 14.708 112.352 13.988 113.28 13.46C114.208 12.916 115.24 12.644 116.376 12.644C117.496 12.644 118.48 12.9 119.328 13.412C120.192 13.908 120.864 14.596 121.344 15.476C121.84 16.34 122.088 17.324 122.088 18.428C122.088 18.636 122.072 18.852 122.04 19.076C122.024 19.284 121.984 19.524 121.92 19.796L112.176 19.82V17.468L120.456 17.444L119.184 18.428C119.152 17.74 119.024 17.164 118.8 16.7C118.592 16.236 118.28 15.884 117.864 15.644C117.464 15.388 116.968 15.26 116.376 15.26C115.752 15.26 115.208 15.404 114.744 15.692C114.28 15.964 113.92 16.356 113.664 16.868C113.424 17.364 113.304 17.956 113.304 18.644C113.304 19.348 113.432 19.964 113.688 20.492C113.96 21.004 114.344 21.404 114.84 21.692C115.336 21.964 115.912 22.1 116.568 22.1C117.16 22.1 117.696 22.004 118.176 21.812C118.656 21.604 119.072 21.3 119.424 20.9L121.272 22.748C120.712 23.404 120.024 23.9 119.208 24.236C118.408 24.572 117.536 24.74 116.592 24.74Z" fill="#173302"/>
    <defs>
        <clipPath id="clip0_29_164">
            <rect width="32" height="32" fill="white"/>
        </clipPath>
    </defs>
</svg>
