<svg width="25" height="24" viewBox="0 0 25 24" fill="none" xmlns="http://www.w3.org/2000/svg">
    <path d="M22.5555 10.0415H21.75V10H12.75V14H18.4015C17.577 16.3285 15.3615 18 12.75 18C9.4365 18 6.75 15.3135 6.75 12C6.75 8.6865 9.4365 6 12.75 6C14.2795 6 15.671 6.577 16.7305 7.5195L19.559 4.691C17.773 3.0265 15.384 2 12.75 2C7.2275 2 2.75 6.4775 2.75 12C2.75 17.5225 7.2275 22 12.75 22C18.2725 22 22.75 17.5225 22.75 12C22.75 11.3295 22.681 10.675 22.5555 10.0415Z" fill="#FFC107"/>
    <path d="M3.90295 7.3455L7.18845 9.755C8.07745 7.554 10.2305 6 12.75 6C14.2795 6 15.671 6.577 16.7305 7.5195L19.559 4.691C17.773 3.0265 15.384 2 12.75 2C8.90895 2 5.57795 4.1685 3.90295 7.3455Z" fill="#FF3D00"/>
    <path d="M12.75 22C15.333 22 17.68 21.0115 19.4545 19.404L16.3595 16.785C15.3218 17.5742 14.0538 18.001 12.75 18C10.149 18 7.94053 16.3415 7.10853 14.027L3.84753 16.5395C5.50253 19.778 8.86353 22 12.75 22Z" fill="#4CAF50"/>
    <path d="M22.5555 10.0415H21.75V10H12.75V14H18.4015C18.0071 15.1082 17.2967 16.0766 16.358 16.7855L16.3595 16.7845L19.4545 19.4035C19.2355 19.6025 22.75 17 22.75 12C22.75 11.3295 22.681 10.675 22.5555 10.0415Z" fill="#1976D2"/>
</svg>
