<svg width="25" height="24" viewBox="0 0 25 24" fill="none" xmlns="http://www.w3.org/2000/svg">
<path d="M17.7999 20.28C16.8199 21.23 15.7499 21.08 14.7199 20.63C13.6299 20.17 12.6299 20.15 11.4799 20.63C10.0399 21.25 9.27992 21.07 8.41992 20.28C3.53992 15.25 4.25992 7.59 9.79992 7.31C11.1499 7.38 12.0899 8.05 12.8799 8.11C14.0599 7.87 15.1899 7.18 16.4499 7.27C17.9599 7.39 19.0999 7.99 19.8499 9.07C16.7299 10.94 17.4699 15.05 20.3299 16.2C19.7599 17.7 19.0199 19.19 17.7899 20.29L17.7999 20.28ZM12.7799 7.25C12.6299 5.02 14.4399 3.18 16.5199 3C16.8099 5.58 14.1799 7.5 12.7799 7.25Z" fill="#101010"/>
</svg>
