<svg width="34" height="24" viewBox="0 0 34 24" fill="none" xmlns="http://www.w3.org/2000/svg">
<rect x="0.199951" width="33.6" height="24" rx="4" fill="#016FD0"/>
<path fill-rule="evenodd" clip-rule="evenodd" d="M6.72681 17.8714V12.6476H12.2872L12.8838 13.4212L13.5001 12.6476H33.6831V17.5111C33.6831 17.5111 33.1553 17.8662 32.5449 17.8714H21.3691L20.6965 17.0479V17.8714H18.4924V16.4657C18.4924 16.4657 18.1913 16.6619 17.5404 16.6619H16.7902V17.8714H13.453L12.8572 17.0812L12.2524 17.8714H6.72681Z" fill="white"/>
<path fill-rule="evenodd" clip-rule="evenodd" d="M0.233521 8.71045L1.48742 5.80261H3.65591L4.36752 7.43146V5.80261H7.06315L7.48677 6.9799L7.89745 5.80261H19.9981V6.39447C19.9981 6.39447 20.6342 5.80261 21.6796 5.80261L25.6058 5.81626L26.3051 7.42379V5.80261H28.561L29.1818 6.72601V5.80261H31.4584V11.0264H29.1818L28.5868 10.1V11.0264H25.2725L24.9392 10.203H24.0482L23.7203 11.0264H21.4726C20.5731 11.0264 19.9981 10.4466 19.9981 10.4466V11.0264H16.6091L15.9365 10.203V11.0264H3.33466L3.00159 10.203H2.11343L1.78271 11.0264H0.233521L0.233521 8.71045Z" fill="white"/>
<path fill-rule="evenodd" clip-rule="evenodd" d="M0.23999 10.3581L1.93123 6.44666H3.2134L4.90302 10.3581H3.77769L3.46725 9.57483H1.65313L1.34107 10.3581H0.23999ZM3.10992 8.72564L2.55695 7.35696L2.00237 8.72564H3.10992Z" fill="#016FD0"/>
<path fill-rule="evenodd" clip-rule="evenodd" d="M5.01941 10.3573V6.44592L6.58411 6.4517L7.49419 8.97354L8.38248 6.44592H9.93467V10.3573H8.95162V7.47525L7.90956 10.3573H7.04742L6.00246 7.47525V10.3573H5.01941Z" fill="#016FD0"/>
<path fill-rule="evenodd" clip-rule="evenodd" d="M10.6073 10.3573V6.44592H13.8152V7.32085H11.6007V7.98991H13.7634V8.81337H11.6007V9.50816H13.8152V10.3573H10.6073Z" fill="#016FD0"/>
<path fill-rule="evenodd" clip-rule="evenodd" d="M14.3843 10.3581V6.44666H16.5719C17.2968 6.44666 17.9462 6.89252 17.9462 7.71562C17.9462 8.41925 17.3986 8.87247 16.8678 8.91703L18.1613 10.3581H16.9599L15.7812 8.96849H15.3673V10.3581H14.3843ZM16.4911 7.32158H15.3673V8.14504H16.5056C16.7026 8.14504 16.9567 7.99316 16.9567 7.73331C16.9567 7.53133 16.7606 7.32158 16.4911 7.32158Z" fill="#016FD0"/>
<path fill-rule="evenodd" clip-rule="evenodd" d="M19.3513 10.3573H18.3475V6.44592H19.3513V10.3573Z" fill="#016FD0"/>
<path fill-rule="evenodd" clip-rule="evenodd" d="M21.7314 10.3573H21.5147C20.4664 10.3573 19.83 9.53583 19.83 8.41772C19.83 7.27199 20.4593 6.44592 21.7831 6.44592H22.8697V7.37231H21.7434C21.206 7.37231 20.8259 7.78948 20.8259 8.42737C20.8259 9.18486 21.2605 9.50301 21.8866 9.50301H22.1453L21.7314 10.3573Z" fill="#016FD0"/>
<path fill-rule="evenodd" clip-rule="evenodd" d="M22.1792 10.3581L23.8704 6.44666H25.1526L26.8422 10.3581H25.7169L25.4065 9.57483H23.5923L23.2803 10.3581H22.1792ZM25.0491 8.72564L24.4962 7.35696L23.9416 8.72564H25.0491Z" fill="#016FD0"/>
<path fill-rule="evenodd" clip-rule="evenodd" d="M26.957 10.3573V6.44592H28.2069L29.8027 8.90343V6.44592H30.7858V10.3573H29.5763L27.9401 7.83551V10.3573H26.957Z" fill="#016FD0"/>
<path fill-rule="evenodd" clip-rule="evenodd" d="M7.39941 17.2023V13.2909H10.6073V14.1658H8.39281V14.8349H10.5555V15.6583H8.39281V16.3531H10.6073V17.2023H7.39941Z" fill="#016FD0"/>
<path fill-rule="evenodd" clip-rule="evenodd" d="M23.1179 17.2023V13.2909H26.3258V14.1658H24.1113V14.8349H26.2637V15.6583H24.1113V16.3531H26.3258V17.2023H23.1179Z" fill="#016FD0"/>
<path fill-rule="evenodd" clip-rule="evenodd" d="M10.7318 17.2023L12.2937 15.2707L10.6946 13.2909H11.9331L12.8854 14.5148L13.841 13.2909H15.031L13.4529 15.2466L15.0177 17.2023H13.7794L12.8547 15.9977L11.9525 17.2023H10.7318Z" fill="#016FD0"/>
<path fill-rule="evenodd" clip-rule="evenodd" d="M15.1345 17.203V13.2916H17.306C18.197 13.2916 18.7175 13.8628 18.7175 14.6072C18.7175 15.5058 18.0538 15.9679 17.1782 15.9679H16.1434V17.203H15.1345ZM17.2332 14.1762H16.1434V15.0769H17.23C17.5171 15.0769 17.7183 14.8876 17.7183 14.6265C17.7183 14.3487 17.5161 14.1762 17.2332 14.1762Z" fill="#016FD0"/>
<path fill-rule="evenodd" clip-rule="evenodd" d="M19.1444 17.2023V13.2909H21.332C22.0569 13.2909 22.7064 13.7368 22.7064 14.5599C22.7064 15.2635 22.1588 15.7167 21.6279 15.7613L22.9214 17.2023H21.7201L20.5414 15.8127H20.1275V17.2023H19.1444ZM21.2512 14.1658H20.1275V14.9893H21.2657C21.4628 14.9893 21.7168 14.8374 21.7168 14.5775C21.7168 14.3756 21.5207 14.1658 21.2512 14.1658Z" fill="#016FD0"/>
<path fill-rule="evenodd" clip-rule="evenodd" d="M26.7811 17.2023V16.3531H28.7485C29.0396 16.3531 29.1656 16.1966 29.1656 16.025C29.1656 15.8606 29.04 15.6944 28.7485 15.6944H27.8594C27.0866 15.6944 26.6562 15.226 26.6562 14.5229C26.6562 13.8957 27.0504 13.2909 28.1987 13.2909H30.1131L29.6992 14.171H28.0435C27.727 14.171 27.6296 14.3362 27.6296 14.4939C27.6296 14.6561 27.75 14.8349 27.9918 14.8349H28.9231C29.7846 14.8349 30.1584 15.3209 30.1584 15.9575C30.1584 16.6418 29.7418 17.2023 28.8762 17.2023H26.7811Z" fill="#016FD0"/>
<path fill-rule="evenodd" clip-rule="evenodd" d="M30.3891 17.2023V16.3531H32.3565C32.6476 16.3531 32.7737 16.1966 32.7737 16.025C32.7737 15.8606 32.648 15.6944 32.3565 15.6944H31.4675C30.6947 15.6944 30.2643 15.226 30.2643 14.5229C30.2643 13.8957 30.6584 13.2909 31.8068 13.2909H33.7211L33.3072 14.171H31.6516C31.3351 14.171 31.2376 14.3362 31.2376 14.4939C31.2376 14.6561 31.358 14.8349 31.5998 14.8349H32.5311C33.3926 14.8349 33.7664 15.3209 33.7664 15.9575C33.7664 16.6418 33.3499 17.2023 32.4842 17.2023H30.3891Z" fill="#016FD0"/>
</svg>
