<svg width="35" height="24" viewBox="0 0 35 24" fill="none" xmlns="http://www.w3.org/2000/svg">
<rect x="0.599976" width="33.6" height="24" rx="4" fill="#108EE9"/>
<path fill-rule="evenodd" clip-rule="evenodd" d="M7.85252 8.16003H7.74052C6.8098 8.17963 5.89308 8.55203 5.21716 9.19267C4.42476 9.92627 3.97004 10.9953 3.95996 12.0728V12.173C3.979 13.228 4.42084 14.2724 5.19028 14.9982C5.8718 15.6568 6.80588 16.0404 7.75396 16.056H7.86372C9.145 16.0415 10.3781 15.3241 11.0445 14.2338C11.6146 13.33 11.7899 12.1932 11.5368 11.1566C11.3245 10.2623 10.7892 9.44747 10.0477 8.90315C9.41772 8.43275 8.6382 8.17459 7.85252 8.16003ZM6.1126 11.3683C6.47436 11.4741 6.8602 11.4097 7.21244 11.296C7.40655 11.232 7.59763 11.1589 7.78872 11.0857C8.09765 10.9675 8.40659 10.8492 8.72836 10.7696C9.159 10.6688 9.64284 10.75 9.9878 11.0356C10.056 11.1012 10.0559 11.1959 10.0558 11.2857C10.0557 11.3079 10.0557 11.3298 10.0567 11.3509C10.0528 11.64 10.0542 11.9292 10.0556 12.2184C10.0576 12.6445 10.0596 13.0706 10.0449 13.4963C9.99296 13.4742 9.94128 13.4507 9.88953 13.4272L9.88951 13.4272L9.88949 13.4272L9.88947 13.4272L9.88945 13.4272C9.6763 13.3304 9.46198 13.2331 9.22228 13.2286C8.7224 13.2011 8.2603 13.367 7.79733 13.5333C7.42062 13.6685 7.04332 13.804 6.6446 13.8356C6.28284 13.8608 5.90484 13.7752 5.6114 13.5573C5.55129 13.4741 5.55429 13.37 5.55722 13.268C5.55841 13.2266 5.5596 13.1855 5.55652 13.1463C5.56209 12.8875 5.55963 12.6283 5.55716 12.3691V12.3691V12.3691V12.369V12.369C5.55318 11.951 5.5492 11.533 5.57892 11.1168C5.64493 11.1462 5.70844 11.1812 5.77194 11.2162L5.77194 11.2162L5.77194 11.2162C5.88136 11.2765 5.9907 11.3367 6.1126 11.3683ZM13.7045 10.1266C13.5064 10.1279 13.3083 10.1291 13.1104 10.1268C13.1101 10.7915 13.1101 11.4563 13.1101 12.1213C13.1101 12.7862 13.1101 13.4512 13.1098 14.1162C13.3304 14.1165 13.5509 14.1165 13.7714 14.1165C13.9919 14.1165 14.2124 14.1165 14.4331 14.1168C14.754 14.1173 15.0782 14.0557 15.3649 13.9073C16.1276 13.5332 16.5695 12.6339 16.4233 11.8C16.3024 10.932 15.5441 10.1945 14.6632 10.1357C14.3438 10.1226 14.0241 10.1246 13.7045 10.1266ZM13.9439 12.9315C13.9455 12.2826 13.9472 11.6336 13.9414 10.9847C14.0269 10.9873 14.113 10.9858 14.1991 10.9843H14.1991H14.1991H14.1991H14.1991C14.3875 10.981 14.5762 10.9777 14.7607 11.0177C15.2204 11.123 15.5749 11.5514 15.6074 12.0196C15.6561 12.4855 15.3856 12.9665 14.9556 13.1569C14.7224 13.2671 14.4662 13.2617 14.2126 13.2564H14.2126C14.122 13.2545 14.0318 13.2526 13.9431 13.256L13.9439 12.9315ZM17.9051 11.7401C17.932 10.8749 18.7109 10.0976 19.5868 10.1273C20.4452 10.1184 21.199 10.8788 21.2332 11.7272C21.2421 12.2146 21.2407 12.7021 21.2393 13.1896V13.1898C21.2385 13.4983 21.2376 13.8067 21.2393 14.1151L21.2388 14.1151C20.9606 14.1156 20.6831 14.1162 20.4055 14.1151C20.4041 13.9723 20.4042 13.8295 20.4044 13.6867V13.6867V13.6867V13.6867C20.4045 13.544 20.4046 13.4013 20.4032 13.2588C20.0758 13.2605 19.7485 13.2602 19.4214 13.2599H19.4208H19.4208H19.4208C19.192 13.2597 18.9632 13.2595 18.7344 13.26C18.7336 13.3664 18.734 13.4729 18.7344 13.5795V13.5795V13.5795V13.5795C18.7351 13.7594 18.7358 13.9393 18.7305 14.119C18.5458 14.1145 18.3612 14.115 18.1768 14.1155H18.1768H18.1768H18.1767H18.1767H18.1766H18.1766C18.0844 14.1158 17.9922 14.116 17.9 14.1156C17.9011 13.8277 17.9003 13.5397 17.8995 13.2517C17.8982 12.7476 17.8969 12.2437 17.9051 11.7401ZM18.9478 11.2708C18.7205 11.5164 18.7272 11.8478 18.7335 12.1653V12.1653V12.1654V12.1654C18.7351 12.2461 18.7367 12.3259 18.7344 12.4032C18.9568 12.4034 19.1793 12.4032 19.4019 12.4031H19.4019H19.4019H19.4019H19.4023C19.736 12.4029 20.0697 12.4027 20.4032 12.4037C20.4012 12.3267 20.403 12.2473 20.4048 12.167V12.167V12.167V12.167C20.4117 11.8566 20.419 11.5333 20.205 11.2882C19.9065 10.8962 19.2569 10.8872 18.9478 11.2708ZM22.6981 11.7491C22.7228 10.9875 23.318 10.2808 24.0735 10.1525C24.6357 10.0444 25.2383 10.2656 25.6045 10.7036C25.8879 11.0155 26.0324 11.4377 26.0324 11.8566C26.0335 12.358 26.0331 12.8593 26.0327 13.3605V13.3625C26.0325 13.6135 26.0324 13.8645 26.0324 14.1156C25.9379 14.1162 25.8434 14.1159 25.7489 14.1155H25.7488H25.7488C25.5665 14.1149 25.3841 14.1142 25.2019 14.1201C25.1959 13.6934 25.1968 13.2666 25.1978 12.8397C25.1985 12.5114 25.1993 12.1831 25.1968 11.8549C25.2013 11.5503 25.0384 11.2468 24.7718 11.0956C24.4952 10.9298 24.1205 10.9544 23.8668 11.1538C23.6473 11.3179 23.5247 11.5912 23.5286 11.8633C23.5273 12.2924 23.5275 12.7214 23.5277 13.1503C23.5278 13.4721 23.528 13.7938 23.5275 14.1156C23.4259 14.1152 23.3242 14.1154 23.2226 14.1156H23.2226C23.0448 14.1159 22.867 14.1162 22.6892 14.1134C22.6951 13.7335 22.694 13.3535 22.6929 12.9735C22.6917 12.5653 22.6906 12.1571 22.6981 11.7491ZM27.7583 10.9001C28.0803 10.3984 28.675 10.0747 29.2759 10.1318C29.9552 10.1738 30.5577 10.6912 30.7459 11.338C30.8153 11.5564 30.8186 11.7845 30.8219 12.0124C30.8238 12.1428 30.8257 12.2731 30.84 12.4015V14.1112C30.6266 14.117 30.4132 14.1163 30.1999 14.1156C30.1288 14.1153 30.0576 14.1151 29.9865 14.1151C29.9862 14.0231 29.9863 13.9311 29.9865 13.839V13.839C29.9868 13.6447 29.9872 13.4502 29.9826 13.256C29.6448 13.2611 29.3068 13.2605 28.9688 13.2598H28.9687C28.7514 13.2593 28.534 13.2589 28.3166 13.26C28.3163 13.4025 28.3163 13.545 28.3163 13.6876C28.3163 13.8302 28.3163 13.9728 28.316 14.1156H27.4816C27.4814 13.748 27.4814 13.3805 27.4814 13.0131C27.4814 12.6456 27.4814 12.2783 27.4811 11.9109C27.4772 11.557 27.5617 11.1975 27.7583 10.9001ZM28.5255 11.2764C28.3027 11.5211 28.3093 11.8498 28.3156 12.1649C28.3173 12.2458 28.3189 12.3257 28.3166 12.4032C28.6877 12.4035 29.0589 12.4034 29.4298 12.4033L29.986 12.4032C29.9835 12.3242 29.9852 12.2426 29.987 12.1602C29.9936 11.8512 30.0005 11.5301 29.786 11.2865C29.4848 10.894 28.8324 10.8889 28.5255 11.2764Z" fill="white"/>
</svg>
