<svg width="16" height="17" viewBox="0 0 16 17" fill="none" xmlns="http://www.w3.org/2000/svg">
<path d="M1.854 7.82408C1.76026 7.73032 1.70761 7.60316 1.70761 7.47058C1.70761 7.338 1.76026 7.21084 1.854 7.11708L6.5 2.47008L6.57 2.41108C6.66634 2.34492 6.7828 2.3146 6.89917 2.32537C7.01554 2.33615 7.12445 2.38735 7.207 2.47008L7.265 2.54008C7.33136 2.63646 7.36189 2.75303 7.3513 2.86956C7.3407 2.9861 7.28965 3.09525 7.207 3.17808L3.415 6.97008H14.5C14.6326 6.97008 14.7598 7.02276 14.8536 7.11653C14.9473 7.21029 15 7.33747 15 7.47008C15 7.60269 14.9473 7.72986 14.8536 7.82363C14.7598 7.9174 14.6326 7.97008 14.5 7.97008H2.207C2.07465 7.97005 1.94771 7.91755 1.854 7.82408ZM1 10.4701C1 10.3375 1.05268 10.2103 1.14645 10.1165C1.24021 10.0228 1.36739 9.97008 1.5 9.97008H13.793C13.8918 9.9701 13.9884 9.9994 14.0706 10.0543C14.1528 10.1092 14.2168 10.1872 14.2547 10.2784C14.2926 10.3697 14.3026 10.4701 14.2834 10.5671C14.2642 10.664 14.2168 10.7531 14.147 10.8231L9.5 15.4701L9.43 15.5291C9.3271 15.5985 9.20209 15.6272 9.0792 15.6098C8.95631 15.5923 8.84429 15.5298 8.76485 15.4344C8.68541 15.339 8.6442 15.2175 8.64922 15.0935C8.65423 14.9695 8.70512 14.8517 8.792 14.7631L12.588 10.9701H1.5C1.36739 10.9701 1.24021 10.9174 1.14645 10.8236C1.05268 10.7299 1 10.6027 1 10.4701Z" fill="#173302"/>
</svg>
