<svg width="21" height="21" viewBox="0 0 21 21" fill="none" xmlns="http://www.w3.org/2000/svg">
<path d="M11 8C12.933 8 14.5 6.433 14.5 4.5C14.5 2.567 12.933 1 11 1C9.067 1 7.5 2.567 7.5 4.5C7.5 6.433 9.067 8 11 8Z" stroke="#8E8E8E" stroke-width="2" stroke-linecap="round" stroke-linejoin="round"/>
<path d="M1 19.5C1 15.0815 5.0295 11.5 10 11.5M13 13.6C13 13.0665 16.5 12 16.5 12C16.5 12 20 13.0665 20 13.6C20 17.8665 16.5 20 16.5 20C16.5 20 13 17.8665 13 13.6Z" stroke="#8E8E8E" stroke-width="2" stroke-linecap="round" stroke-linejoin="round"/>
</svg>
