<svg width="16" height="16" viewBox="0 0 16 16" fill="none" xmlns="http://www.w3.org/2000/svg">
<path fill-rule="evenodd" clip-rule="evenodd" d="M7.73717 1.38669C7.82017 1.35111 7.90953 1.33276 7.99984 1.33276C8.09014 1.33276 8.1795 1.35111 8.2625 1.38669L12.5252 3.21402C12.7651 3.31686 12.9695 3.48785 13.1131 3.70578C13.2568 3.92372 13.3333 4.17901 13.3332 4.44002V9.01336C13.3331 9.83597 13.1156 10.6439 12.7026 11.3554C12.2897 12.0669 11.6961 12.6566 10.9818 13.0647L8.3305 14.5794C8.22979 14.6369 8.11582 14.6671 7.99984 14.6671C7.88386 14.6671 7.76988 14.6369 7.66917 14.5794L5.01784 13.0647C4.30341 12.6564 3.70964 12.0666 3.2967 11.3548C2.88376 10.6431 2.66635 9.83486 2.6665 9.01202V4.44002C2.66653 4.17913 2.7431 3.92397 2.88672 3.70617C3.03035 3.48837 3.23471 3.31748 3.4745 3.21469L7.73717 1.38802V1.38669ZM10.4712 7.13802C10.5926 7.01229 10.6598 6.84389 10.6583 6.66909C10.6568 6.49429 10.5867 6.32708 10.463 6.20348C10.3394 6.07987 10.1722 6.00976 9.99744 6.00824C9.82264 6.00672 9.65424 6.07392 9.5285 6.19536L7.33317 8.39069L6.47117 7.52869C6.34544 7.40725 6.17703 7.34005 6.00224 7.34157C5.82744 7.34309 5.66023 7.41321 5.53662 7.53681C5.41302 7.66042 5.34291 7.82762 5.34139 8.00242C5.33987 8.17722 5.40707 8.34562 5.5285 8.47136L6.86184 9.80469C6.98686 9.92967 7.15639 9.99988 7.33317 9.99988C7.50995 9.99988 7.67948 9.92967 7.8045 9.80469L10.4712 7.13802Z" fill="#1355FF"/>
</svg>
