<svg width="37" height="26" viewBox="0 0 37 26" fill="none" xmlns="http://www.w3.org/2000/svg">
<rect x="1.30005" y="0.5" width="34.6" height="25" rx="4.5" stroke="#D7D7D7"/>
<rect x="1.80005" y="1" width="33.6" height="24" rx="4" fill="white"/>
<path fill-rule="evenodd" clip-rule="evenodd" d="M23.2815 7.71997C23.1702 7.72028 23.0593 7.72407 22.9501 7.73652C22.5228 7.78515 22.1209 7.99868 21.8322 8.32813C21.6181 8.57254 21.4694 8.87522 21.4064 9.19886C21.3752 9.35864 21.3713 9.51882 21.3713 9.68072V10.7554V11.2763V11.4294C21.3713 11.4704 21.3618 11.4736 21.4055 11.4736H22.0891H22.7702H23.4554C23.6792 11.4736 23.9047 11.4649 24.1277 11.4859C24.3475 11.5066 24.5712 11.5714 24.7489 11.7113C24.9988 11.908 25.1004 12.2475 25.015 12.5597C24.933 12.8594 24.6872 13.0604 24.4063 13.1438C24.3752 13.1531 24.3437 13.161 24.312 13.1677C24.2936 13.1717 24.2688 13.171 24.2521 13.179C24.2439 13.183 24.2229 13.1879 24.2383 13.203C24.2421 13.2068 24.2584 13.2068 24.2704 13.2067C24.2753 13.2066 24.2795 13.2066 24.2819 13.2068C24.3701 13.2156 24.4578 13.2314 24.5433 13.2556C24.805 13.3295 25.0589 13.4884 25.1801 13.7492C25.3236 14.0578 25.2505 14.4401 25.0187 14.6795C24.8362 14.8682 24.5814 14.9644 24.3291 14.9963C24.2027 15.0123 24.0753 15.009 23.9481 15.009H23.2629H22.5776H21.8965H21.5539H21.4682C21.4487 15.009 21.3935 14.999 21.3774 15.009C21.3681 15.0149 21.3713 15.0235 21.3713 15.039V15.6949V16.8522V18.0217V18.7139C21.3713 18.7209 21.3667 18.7512 21.3713 18.7568C21.3767 18.7634 21.4227 18.7576 21.434 18.7576H21.5196H21.8622H22.5434H23.2286H23.9117C24.3186 18.7576 24.7061 18.6483 25.0358 18.3927C25.4831 18.0462 25.7473 17.4952 25.7495 16.917C25.7496 16.8946 25.7497 16.8722 25.7497 16.8498V16.8171C25.7496 16.7676 25.7495 16.718 25.7495 16.6685V16.059C25.7495 15.7639 25.7495 15.4688 25.7495 15.1738C25.7495 14.8112 25.7495 14.4488 25.7495 14.0863C25.7495 13.6863 25.7495 13.2863 25.7495 12.8863C25.7495 12.4725 25.7495 12.0585 25.7495 11.6446C25.7495 11.2455 25.7495 10.8464 25.7495 10.4473C25.7495 10.0913 25.7495 9.73547 25.7495 9.37955C25.7495 9.09083 25.7495 8.80211 25.7495 8.51338V7.93662C25.7495 7.8662 25.7495 7.79578 25.7495 7.72532H25.7425C25.5248 7.72568 25.307 7.72532 25.0893 7.72532H24.4063H23.721C23.5856 7.72532 23.448 7.72033 23.3108 7.71997H23.2815ZM22.2281 12.0323C22.2225 12.045 22.2281 12.0731 22.2281 12.0867V12.5762V12.8049C22.2281 12.824 22.2192 12.8897 22.2326 12.8994C22.2442 12.9077 22.2939 12.8994 22.3087 12.8994H22.391H22.5492H22.8635C22.9668 12.8994 23.0702 12.9013 23.1734 12.8994C23.3012 12.8971 23.425 12.8588 23.5159 12.7651C23.6187 12.659 23.6555 12.503 23.6242 12.3598C23.6099 12.2965 23.5825 12.2372 23.5419 12.1864C23.4641 12.0891 23.3482 12.0352 23.2254 12.0252C23.1671 12.0205 23.1082 12.0227 23.0498 12.0227H22.7355H22.415H22.259C22.2506 12.0227 22.245 12.0219 22.2409 12.0219C22.2346 12.0219 22.2319 12.0237 22.2281 12.0323ZM22.9033 13.4736H22.2279C22.2279 13.4827 22.2279 13.4917 22.2279 13.5007V13.9902V14.2793V14.3848C22.2279 14.3999 22.2219 14.4317 22.2279 14.4455C22.237 14.4665 22.3209 14.4547 22.3478 14.4547H22.5187H22.8565H23.1961C23.3064 14.4547 23.4123 14.4476 23.5101 14.387C23.629 14.3135 23.71 14.1849 23.7303 14.0418C23.7536 13.8781 23.7007 13.7087 23.5828 13.5976C23.4873 13.5077 23.3689 13.4746 23.243 13.4736C23.2052 13.4733 23.1674 13.4732 23.1297 13.4732C23.0542 13.4732 22.9787 13.4736 22.9033 13.4736Z" fill="url(#paint0_linear_69_5451)"/>
<mask id="mask0_69_5451" style="mask-type:luminance" maskUnits="userSpaceOnUse" x="21" y="7" width="5" height="12">
<path fill-rule="evenodd" clip-rule="evenodd" d="M23.2815 7.71997C23.1702 7.72028 23.0593 7.72407 22.9501 7.73652C22.5228 7.78515 22.1209 7.99868 21.8322 8.32813C21.6181 8.57254 21.4694 8.87522 21.4064 9.19886C21.3752 9.35864 21.3713 9.51882 21.3713 9.68072V10.7554V11.2763V11.4294C21.3713 11.4704 21.3618 11.4736 21.4055 11.4736H22.0891H22.7702H23.4554C23.6792 11.4736 23.9047 11.4649 24.1277 11.4859C24.3475 11.5066 24.5712 11.5714 24.7489 11.7113C24.9988 11.908 25.1004 12.2475 25.015 12.5597C24.933 12.8594 24.6872 13.0604 24.4063 13.1438C24.3752 13.1531 24.3437 13.161 24.312 13.1677C24.2936 13.1717 24.2688 13.171 24.2521 13.179C24.2439 13.183 24.2229 13.1879 24.2383 13.203C24.2421 13.2068 24.2584 13.2068 24.2704 13.2067C24.2753 13.2066 24.2795 13.2066 24.2819 13.2068C24.3701 13.2156 24.4578 13.2314 24.5433 13.2556C24.805 13.3295 25.0589 13.4884 25.1801 13.7492C25.3236 14.0578 25.2505 14.4401 25.0187 14.6795C24.8362 14.8682 24.5814 14.9644 24.3291 14.9963C24.2027 15.0123 24.0753 15.009 23.9481 15.009H23.2629H22.5776H21.8965H21.5539H21.4682C21.4487 15.009 21.3935 14.999 21.3774 15.009C21.3681 15.0149 21.3713 15.0235 21.3713 15.039V15.6949V16.8522V18.0217V18.7139C21.3713 18.7209 21.3667 18.7512 21.3713 18.7568C21.3767 18.7634 21.4227 18.7576 21.434 18.7576H21.5196H21.8622H22.5434H23.2286H23.9117C24.3186 18.7576 24.7061 18.6483 25.0358 18.3927C25.4831 18.0462 25.7473 17.4952 25.7495 16.917C25.7496 16.8946 25.7497 16.8722 25.7497 16.8498V16.8171C25.7496 16.7676 25.7495 16.718 25.7495 16.6685V16.059C25.7495 15.7639 25.7495 15.4688 25.7495 15.1738C25.7495 14.8112 25.7495 14.4488 25.7495 14.0863C25.7495 13.6863 25.7495 13.2863 25.7495 12.8863C25.7495 12.4725 25.7495 12.0585 25.7495 11.6446C25.7495 11.2455 25.7495 10.8464 25.7495 10.4473C25.7495 10.0913 25.7495 9.73547 25.7495 9.37955C25.7495 9.09083 25.7495 8.80211 25.7495 8.51338V7.93662C25.7495 7.8662 25.7495 7.79578 25.7495 7.72532H25.7425C25.5248 7.72568 25.307 7.72532 25.0893 7.72532H24.4063H23.721C23.5856 7.72532 23.448 7.72033 23.3108 7.71997H23.2815ZM22.2281 12.0323C22.2225 12.045 22.2281 12.0731 22.2281 12.0867V12.5762V12.8049C22.2281 12.824 22.2192 12.8897 22.2326 12.8994C22.2442 12.9077 22.2939 12.8994 22.3087 12.8994H22.391H22.5492H22.8635C22.9668 12.8994 23.0702 12.9013 23.1734 12.8994C23.3012 12.8971 23.425 12.8588 23.5159 12.7651C23.6187 12.659 23.6555 12.503 23.6242 12.3598C23.6099 12.2965 23.5825 12.2372 23.5419 12.1864C23.4641 12.0891 23.3482 12.0352 23.2254 12.0252C23.1671 12.0205 23.1082 12.0227 23.0498 12.0227H22.7355H22.415H22.259C22.2506 12.0227 22.245 12.0219 22.2409 12.0219C22.2346 12.0219 22.2319 12.0237 22.2281 12.0323ZM22.9033 13.4736H22.2279C22.2279 13.4827 22.2279 13.4917 22.2279 13.5007V13.9902V14.2793V14.3848C22.2279 14.3999 22.2219 14.4317 22.2279 14.4455C22.237 14.4665 22.3209 14.4547 22.3478 14.4547H22.5187H22.8565H23.1961C23.3064 14.4547 23.4123 14.4476 23.5101 14.387C23.629 14.3135 23.71 14.1849 23.7303 14.0418C23.7536 13.8781 23.7007 13.7087 23.5828 13.5976C23.4873 13.5077 23.3689 13.4746 23.243 13.4736C23.2052 13.4733 23.1674 13.4732 23.1297 13.4732C23.0542 13.4732 22.9787 13.4736 22.9033 13.4736Z" fill="white"/>
</mask>
<g mask="url(#mask0_69_5451)">
</g>
<path fill-rule="evenodd" clip-rule="evenodd" d="M12.905 7.74452C12.6501 7.78693 12.4054 7.88748 12.1915 8.03568C11.6988 8.37725 11.4039 8.95557 11.4017 9.56416C11.4011 9.7431 11.4017 9.92203 11.4017 10.101V11.2407V12.5657V13.6587V13.9885V14.0756C11.4017 14.1094 11.4014 14.1023 11.4389 14.1205C11.4805 14.1408 11.5224 14.1604 11.5645 14.1796C11.9003 14.3321 12.2544 14.4481 12.6199 14.4938C12.8826 14.5266 13.1631 14.5358 13.4112 14.4284C13.61 14.3423 13.7684 14.1836 13.8498 13.9778C13.9022 13.8455 13.9172 13.7058 13.9172 13.5643V11.9957V11.6425V11.5299C13.9172 11.5186 13.9109 11.4835 13.9172 11.474C13.9249 11.4622 13.9863 11.4698 14.004 11.4698H14.1379H14.4019H15.4615V11.5021V13.0506C15.4615 13.2324 15.4618 13.4142 15.4615 13.596C15.4611 13.8078 15.4308 14.0204 15.3462 14.2151C15.2619 14.4091 15.1268 14.5729 14.9597 14.6977C14.5545 15.0003 14.0176 15.0791 13.5279 15.1018C13.1776 15.1181 12.8258 15.1041 12.477 15.0683C12.1165 15.0315 11.7519 14.9767 11.4017 14.88V15.0055V15.8666V17.1228V18.2576V18.6186V18.7199C11.4017 18.7253 11.3979 18.752 11.4017 18.7563C11.409 18.7645 11.4754 18.7564 11.4885 18.7564H11.5773H11.759H12.1182H12.8381H13.5583C13.8636 18.7564 14.1768 18.7779 14.4753 18.7006C14.9971 18.5655 15.4406 18.1875 15.6663 17.6869C15.7902 17.4122 15.8308 17.1202 15.8308 16.821V16.328V15.4975V14.4211V13.1961V11.9039V10.641V9.50358V8.57399V7.94889V7.72013H15.6518H14.9036H14.1552H13.409C13.3758 7.72013 13.3426 7.71997 13.3094 7.71997C13.1741 7.71997 13.0392 7.7222 12.905 7.74452Z" fill="url(#paint1_linear_69_5451)"/>
<mask id="mask1_69_5451" style="mask-type:luminance" maskUnits="userSpaceOnUse" x="11" y="7" width="5" height="12">
<path fill-rule="evenodd" clip-rule="evenodd" d="M12.905 7.74452C12.6501 7.78693 12.4054 7.88748 12.1915 8.03568C11.6988 8.37725 11.4039 8.95557 11.4017 9.56416C11.4011 9.7431 11.4017 9.92203 11.4017 10.101V11.2407V12.5657V13.6587V13.9885V14.0756C11.4017 14.1094 11.4014 14.1023 11.4389 14.1205C11.4805 14.1408 11.5224 14.1604 11.5645 14.1796C11.9003 14.3321 12.2544 14.4481 12.6199 14.4938C12.8826 14.5266 13.1631 14.5358 13.4112 14.4284C13.61 14.3423 13.7684 14.1836 13.8498 13.9778C13.9022 13.8455 13.9172 13.7058 13.9172 13.5643V11.9957V11.6425V11.5299C13.9172 11.5186 13.9109 11.4835 13.9172 11.474C13.9249 11.4622 13.9863 11.4698 14.004 11.4698H14.1379H14.4019H15.4615V11.5021V13.0506C15.4615 13.2324 15.4618 13.4142 15.4615 13.596C15.4611 13.8078 15.4308 14.0204 15.3462 14.2151C15.2619 14.4091 15.1268 14.5729 14.9597 14.6977C14.5545 15.0003 14.0176 15.0791 13.5279 15.1018C13.1776 15.1181 12.8258 15.1041 12.477 15.0683C12.1165 15.0315 11.7519 14.9767 11.4017 14.88V15.0055V15.8666V17.1228V18.2576V18.6186V18.7199C11.4017 18.7253 11.3979 18.752 11.4017 18.7563C11.409 18.7645 11.4754 18.7564 11.4885 18.7564H11.5773H11.759H12.1182H12.8381H13.5583C13.8636 18.7564 14.1768 18.7779 14.4753 18.7006C14.9971 18.5655 15.4406 18.1875 15.6663 17.6869C15.7902 17.4122 15.8308 17.1202 15.8308 16.821V16.328V15.4975V14.4211V13.1961V11.9039V10.641V9.50358V8.57399V7.94889V7.72013H15.6518H14.9036H14.1552H13.409C13.3758 7.72013 13.3426 7.71997 13.3094 7.71997C13.1741 7.71997 13.0392 7.7222 12.905 7.74452Z" fill="white"/>
</mask>
<g mask="url(#mask1_69_5451)">
</g>
<path fill-rule="evenodd" clip-rule="evenodd" d="M18.0485 7.72452C17.8565 7.73707 17.6665 7.78175 17.4885 7.85728C17.0962 8.02397 16.7699 8.3351 16.5777 8.72548C16.4519 8.98108 16.3882 9.26519 16.3871 9.55158C16.3869 9.59792 16.3871 9.64425 16.3871 9.69064V10.5032V11.9477C16.3991 11.9371 16.4113 11.9266 16.4238 11.9162C16.4677 11.8796 16.5135 11.8453 16.5606 11.8131C16.854 11.6132 17.1964 11.5012 17.5399 11.4351C17.8195 11.3812 18.1041 11.3581 18.3883 11.3525C18.6679 11.347 18.9482 11.3568 19.2263 11.3878C19.51 11.4194 19.792 11.4688 20.0709 11.5305C20.1052 11.5381 20.1394 11.5458 20.1735 11.5539C20.1918 11.5582 20.2619 11.5641 20.2716 11.5786C20.2786 11.5889 20.2716 11.6301 20.2716 11.642V11.791V12.3527C20.232 12.3321 20.1922 12.3119 20.152 12.2924C19.8485 12.1444 19.5286 12.0344 19.1965 11.9804C18.7504 11.9077 18.2456 11.9097 17.8604 12.185C17.4885 12.4507 17.3584 12.9223 17.3986 13.3706C17.4377 13.807 17.6717 14.1811 18.0656 14.3555C18.4548 14.5279 18.9064 14.5047 19.314 14.4216C19.6484 14.3534 19.9672 14.2285 20.2716 14.0719V14.1274V14.782C20.2716 14.7942 20.2787 14.8355 20.2716 14.846C20.2621 14.8601 20.191 14.8661 20.1735 14.8702C20.1024 14.8869 20.031 14.9026 19.9595 14.9175C19.6784 14.9758 19.3944 15.0221 19.1088 15.0484C18.8292 15.0742 18.5468 15.0793 18.2663 15.0684C17.9801 15.0574 17.6935 15.0269 17.4135 14.9629C17.0444 14.8786 16.6771 14.7336 16.3871 14.4771V14.5977V15.4407V16.6986V17.9231V18.6493C16.3871 18.6579 16.3816 18.6937 16.3871 18.7006C16.3991 18.7156 16.4986 18.7033 16.522 18.7033H16.8855H17.6165H18.3436C18.6002 18.7033 18.8614 18.7174 19.1174 18.6986C19.5816 18.6644 20.0213 18.4381 20.3273 18.0764C20.6205 17.7298 20.7651 17.2913 20.7651 16.8343V16.4244V15.6407V14.5823V13.3472V12.0387V10.7443V9.57141V8.60868V7.95909V7.7208H20.6308H19.5021H18.3778C18.3247 7.7208 18.2714 7.71997 18.2181 7.71997C18.1615 7.71997 18.1049 7.7209 18.0485 7.72452Z" fill="url(#paint2_linear_69_5451)"/>
<mask id="mask2_69_5451" style="mask-type:luminance" maskUnits="userSpaceOnUse" x="16" y="7" width="5" height="12">
<path fill-rule="evenodd" clip-rule="evenodd" d="M18.0485 7.72452C17.8565 7.73707 17.6665 7.78175 17.4885 7.85728C17.0962 8.02397 16.7699 8.3351 16.5777 8.72548C16.4519 8.98108 16.3882 9.26519 16.3871 9.55158C16.3869 9.59792 16.3871 9.64425 16.3871 9.69064V10.5032V11.9477C16.3991 11.9371 16.4113 11.9266 16.4238 11.9162C16.4677 11.8796 16.5135 11.8453 16.5606 11.8131C16.854 11.6132 17.1964 11.5012 17.5399 11.4351C17.8195 11.3812 18.1041 11.3581 18.3883 11.3525C18.6679 11.347 18.9482 11.3568 19.2263 11.3878C19.51 11.4194 19.792 11.4688 20.0709 11.5305C20.1052 11.5381 20.1394 11.5458 20.1735 11.5539C20.1918 11.5582 20.2619 11.5641 20.2716 11.5786C20.2786 11.5889 20.2716 11.6301 20.2716 11.642V11.791V12.3527C20.232 12.3321 20.1922 12.3119 20.152 12.2924C19.8485 12.1444 19.5286 12.0344 19.1965 11.9804C18.7504 11.9077 18.2456 11.9097 17.8604 12.185C17.4885 12.4507 17.3584 12.9223 17.3986 13.3706C17.4377 13.807 17.6717 14.1811 18.0656 14.3555C18.4548 14.5279 18.9064 14.5047 19.314 14.4216C19.6484 14.3534 19.9672 14.2285 20.2716 14.0719V14.1274V14.782C20.2716 14.7942 20.2787 14.8355 20.2716 14.846C20.2621 14.8601 20.191 14.8661 20.1735 14.8702C20.1024 14.8869 20.031 14.9026 19.9595 14.9175C19.6784 14.9758 19.3944 15.0221 19.1088 15.0484C18.8292 15.0742 18.5468 15.0793 18.2663 15.0684C17.9801 15.0574 17.6935 15.0269 17.4135 14.9629C17.0444 14.8786 16.6771 14.7336 16.3871 14.4771V14.5977V15.4407V16.6986V17.9231V18.6493C16.3871 18.6579 16.3816 18.6937 16.3871 18.7006C16.3991 18.7156 16.4986 18.7033 16.522 18.7033H16.8855H17.6165H18.3436C18.6002 18.7033 18.8614 18.7174 19.1174 18.6986C19.5816 18.6644 20.0213 18.4381 20.3273 18.0764C20.6205 17.7298 20.7651 17.2913 20.7651 16.8343V16.4244V15.6407V14.5823V13.3472V12.0387V10.7443V9.57141V8.60868V7.95909V7.7208H20.6308H19.5021H18.3778C18.3247 7.7208 18.2714 7.71997 18.2181 7.71997C18.1615 7.71997 18.1049 7.7209 18.0485 7.72452Z" fill="white"/>
</mask>
<g mask="url(#mask2_69_5451)">
</g>
<defs>
<linearGradient id="paint0_linear_69_5451" x1="25.7497" y1="7.24251" x2="21.5173" y2="7.24251" gradientUnits="userSpaceOnUse">
<stop stop-color="#43C311"/>
<stop offset="1" stop-color="#288C00"/>
</linearGradient>
<linearGradient id="paint1_linear_69_5451" x1="11.4114" y1="18.7876" x2="15.8865" y2="18.7876" gradientUnits="userSpaceOnUse">
<stop stop-color="#21469E"/>
<stop offset="1" stop-color="#1E81EB"/>
</linearGradient>
<linearGradient id="paint2_linear_69_5451" x1="20.7651" y1="7.71997" x2="16.3846" y2="7.71997" gradientUnits="userSpaceOnUse">
<stop stop-color="#F42D3E"/>
<stop offset="1" stop-color="#9C0017"/>
</linearGradient>
</defs>
</svg>
