<svg width="34" height="24" viewBox="0 0 34 24" fill="none" xmlns="http://www.w3.org/2000/svg">
<rect x="0.199951" width="33.6" height="24" rx="4" fill="#E82529"/>
<path fill-rule="evenodd" clip-rule="evenodd" d="M15.0805 3.858C15.2495 3.82327 15.436 3.83436 15.584 3.92968C15.7811 4.04939 15.8882 4.28758 15.869 4.51469C15.8343 4.92481 15.5044 5.29478 15.0973 5.36596C14.9088 5.40069 14.7032 5.35882 14.5542 5.23492C14.4069 5.11669 14.3246 4.92481 14.3369 4.73662C14.3694 4.32946 14.6687 3.93608 15.0805 3.858ZM21.3131 4.08092C21.4588 4.06839 21.6057 4.07027 21.7527 4.07215C21.8426 4.0733 21.9325 4.07445 22.022 4.0723C22.1 4.07281 22.1779 4.07252 22.2558 4.07223C22.3666 4.07182 22.4773 4.0714 22.5881 4.07328C22.6386 4.06811 22.6829 4.11811 22.6701 4.16787C22.5264 5.21196 22.3817 6.25596 22.237 7.29994L22.2369 7.30019C22.1243 8.11244 22.0117 8.92466 21.8996 9.73688L21.8992 9.73941C21.8934 9.77711 21.8864 9.82249 21.8464 9.8396C21.8105 9.84899 21.7735 9.8486 21.7367 9.84822H21.7367H21.7367H21.7366H21.7366H21.7366H21.7365H21.7365H21.7365H21.7365H21.7364C21.7241 9.8481 21.7118 9.84797 21.6996 9.84822C21.5146 9.84735 21.3296 9.84754 21.1447 9.84772H21.1446H21.1446H21.1446H21.1446H21.1446H21.1446H21.1445H21.1445H21.1445H21.1445H21.1445C20.9596 9.84791 20.7747 9.84809 20.5899 9.84723C20.5293 9.85635 20.4779 9.79624 20.4951 9.73787C20.6488 8.62149 20.8035 7.5053 20.9583 6.38912L20.9585 6.38785L20.9595 6.38063L20.9595 6.38014L20.9596 6.37964L20.9597 6.37914L20.9597 6.37899L20.9597 6.37896L20.9597 6.37893L20.9597 6.37889L20.9597 6.37886L20.9597 6.37882L20.9597 6.37879C21.062 5.6415 21.1642 4.90421 21.2661 4.16689C21.2703 4.13412 21.2786 4.09471 21.3131 4.08092ZM10.7244 4.29384C10.5421 4.29196 10.3598 4.29008 10.1786 4.30261C10.1194 4.32059 10.0805 4.37872 10.0768 4.43907C9.97276 5.21872 9.86908 5.99846 9.7654 6.77822L9.76529 6.77909C9.68446 7.38699 9.60363 7.99491 9.52261 8.60283C9.49896 8.76885 9.51743 8.94177 9.58148 9.09719C9.77902 9.57899 10.3022 9.87728 10.8128 9.87507L11.047 9.87522C11.7496 9.87568 12.4523 9.87615 13.1548 9.87482C13.2189 9.87851 13.276 9.82482 13.279 9.76127L13.3182 9.49728C13.3589 9.22432 13.3997 8.95121 13.4378 8.67796C13.4519 8.61268 13.3878 8.55726 13.325 8.56687C13.0583 8.56658 12.7916 8.56674 12.5249 8.5669C12.1027 8.56715 11.6804 8.56739 11.2582 8.56588C11.1114 8.57253 10.9845 8.42721 11.0131 8.28262C11.1037 7.64638 11.196 7.01032 11.2882 6.37427L11.2882 6.37425L11.2882 6.37417L11.2882 6.3741L11.2882 6.37404L11.2883 6.37398L11.2883 6.37392L11.2883 6.37386L11.2883 6.3738L11.2883 6.37374L11.2883 6.37368C11.3805 5.73782 11.4727 5.10196 11.5634 4.46592C11.5794 4.38488 11.5141 4.30039 11.4318 4.29669C11.3551 4.29228 11.2782 4.29304 11.2013 4.2938C11.1537 4.29427 11.1062 4.29474 11.0586 4.29399C10.9474 4.29614 10.8359 4.29499 10.7244 4.29384ZM17.1888 5.64332C17.623 5.59479 18.0607 5.59134 18.4975 5.58839C18.9034 5.59085 19.3303 5.68322 19.647 5.95122C19.9367 6.19162 20.0943 6.5611 20.1264 6.93082C20.1492 7.13653 20.1213 7.3412 20.0935 7.54517V7.54518V7.54519V7.5452V7.54521V7.54522V7.54523V7.54524V7.54525V7.54526L20.0935 7.54527L20.0935 7.54529L20.0935 7.5453L20.0935 7.54531L20.0935 7.54533L20.0935 7.54534L20.0935 7.54535L20.0935 7.54537L20.0935 7.54538C20.0856 7.60365 20.0777 7.66186 20.0709 7.72003C19.9974 8.2739 19.9146 8.82642 19.8319 9.37884L19.8318 9.37889L19.7818 9.71373C19.7793 9.78935 19.7081 9.84625 19.634 9.83615C19.4871 9.83566 19.3403 9.83591 19.1935 9.83615C18.9694 9.83653 18.7452 9.8369 18.5211 9.83467C18.4364 9.83516 18.3758 9.74427 18.3977 9.66496L18.4333 9.41477C18.4952 8.9798 18.557 8.54465 18.6236 8.1102C18.6335 8.04108 18.6445 7.97203 18.6554 7.90295L18.6554 7.90294C18.6899 7.68593 18.7244 7.46867 18.727 7.24857L18.7268 7.23652C18.7242 7.11038 18.7214 6.96839 18.6285 6.8722C18.5236 6.76505 18.3709 6.72342 18.2263 6.70544C18.0391 6.68303 17.8501 6.70175 17.6652 6.73204L17.5132 7.80327L17.5122 7.80997L17.5114 7.81575C17.4167 8.48255 17.3221 9.14932 17.2277 9.8162C17.0087 9.62899 16.7213 9.5083 16.4296 9.54032C16.2148 9.54746 16.0212 9.64968 15.8429 9.76028L15.9235 9.2058L15.9235 9.20569C16.0325 8.45506 16.1415 7.70453 16.255 6.95447C16.2659 6.88899 16.276 6.82332 16.2861 6.75763L16.2861 6.7576L16.2861 6.75758L16.2861 6.75755L16.2861 6.75752L16.2861 6.7575L16.2861 6.75747L16.2861 6.75744L16.2861 6.75742L16.2861 6.75738C16.3146 6.57211 16.3431 6.38671 16.3895 6.20492C16.4269 6.06403 16.486 5.91772 16.6075 5.8283C16.7728 5.70244 16.9861 5.67213 17.1864 5.64366L17.1888 5.64332ZM14.3994 5.69253C14.3631 5.69237 14.3265 5.6922 14.2916 5.70243C14.233 5.72288 14.1985 5.78199 14.1943 5.8416C14.1226 6.35662 14.0505 6.87159 13.9783 7.38658C13.8697 8.16198 13.7611 8.93739 13.6541 9.71299C13.6371 9.78048 13.7002 9.84502 13.7677 9.83565C14.1462 9.83639 14.5248 9.83664 14.9034 9.83565C14.9965 9.84107 15.0717 9.75733 15.0736 9.66742C15.1504 9.11945 15.2276 8.57153 15.3049 8.02359C15.4061 7.30577 15.5073 6.58793 15.6074 5.86993C15.6264 5.7852 15.5579 5.69381 15.47 5.69455C15.2799 5.69211 15.0899 5.69251 14.8998 5.6929C14.7448 5.69323 14.5897 5.69355 14.4347 5.69233C14.423 5.69264 14.4112 5.69258 14.3994 5.69253ZM23.7177 5.81771C23.7652 5.75835 23.8391 5.72312 23.9155 5.72633C24.0452 5.7264 24.175 5.72619 24.3048 5.72597H24.3049H24.3049H24.3049H24.3049H24.3049H24.305H24.305H24.305H24.305H24.3051H24.3051H24.3051H24.3051H24.3051C24.5864 5.7255 24.8678 5.72503 25.149 5.72756C25.2404 5.72485 25.2801 5.85146 25.2116 5.90762C24.8431 6.31638 24.4739 6.72441 24.1047 7.13249L24.1033 7.13397L23.7766 7.49514L24.1463 8.28736L24.1476 8.29002C24.4623 8.96423 24.777 9.6385 25.0909 10.3133C25.1518 10.4125 25.069 10.5542 24.9522 10.5463C24.582 10.5478 24.2116 10.5475 23.8413 10.5465C23.7697 10.5519 23.71 10.5005 23.6859 10.4364C23.4399 9.90154 23.1936 9.3668 22.9472 8.83205L22.9467 8.83113L22.9463 8.83021C22.7353 8.37217 22.5242 7.91412 22.3134 7.45597C22.567 7.16048 22.8204 6.86478 23.0737 6.56909L23.0746 6.56801L23.0769 6.56535L23.0778 6.56427C23.2911 6.31536 23.5043 6.06646 23.7177 5.81771ZM16.8402 10.1142C16.6988 10.0293 16.5254 10.0187 16.3663 10.0487C15.9426 10.1214 15.632 10.5276 15.6067 10.9456C15.6008 11.1111 15.6658 11.2783 15.7855 11.3931C15.9269 11.5323 16.1353 11.5924 16.3304 11.5648C16.757 11.5114 17.1092 11.1251 17.14 10.699C17.157 10.4692 17.043 10.2295 16.8402 10.1142ZM12.3347 10.4894C12.2325 10.4887 12.1293 10.4879 12.0306 10.5177C11.8405 10.5721 11.6828 10.7177 11.6062 10.8995L10.7922 12.7029C10.3105 13.77 9.82875 14.8371 9.34772 15.9044C9.30092 15.9801 9.36989 16.0825 9.45709 16.0695C9.84405 16.0687 10.231 16.066 10.618 16.0628C10.6988 16.0655 10.7781 16.0175 10.8094 15.9424C10.8758 15.7903 10.9406 15.6375 11.0054 15.4847C11.0703 15.3319 11.1351 15.1792 11.2015 15.0271C11.2143 14.9798 11.2658 14.9751 11.3069 14.9773C11.504 14.9778 11.7012 14.9777 11.8983 14.9775C12.1612 14.9773 12.424 14.9771 12.6868 14.9785C12.7265 14.9739 12.7642 15.0039 12.7646 15.0445C12.7812 15.1958 12.7957 15.3472 12.8101 15.4986C12.8232 15.6355 12.8362 15.7724 12.8509 15.9091C12.8575 16.0111 12.9523 16.0941 13.0541 16.0889C13.1646 16.0889 13.2751 16.0891 13.3856 16.0893C13.6619 16.0897 13.9382 16.0901 14.2145 16.088C14.3103 16.0889 14.3839 15.987 14.3588 15.8956C14.1795 14.8212 13.9992 13.7467 13.8189 12.6723L13.8188 12.6717L13.8187 12.6712L13.8186 12.6706L13.8185 12.67L13.8184 12.6695L13.8183 12.6689L13.8182 12.668C13.718 12.0706 13.6177 11.4732 13.5176 10.8759C13.4861 10.6643 13.2923 10.4931 13.0777 10.4906C12.94 10.4888 12.8022 10.4892 12.6643 10.4896H12.6643H12.6643H12.6643H12.6642H12.6642H12.6641C12.5722 10.4898 12.4802 10.49 12.3883 10.4896C12.3705 10.4897 12.3528 10.4895 12.3349 10.4894L12.3347 10.4894ZM12.0229 13.0323C12.1473 12.7156 12.2717 12.3989 12.4016 12.0845C12.4279 12.0604 12.4639 12.0912 12.4565 12.123L12.4732 12.3042L12.4732 12.3044C12.517 12.779 12.5607 13.2537 12.6016 13.7285C12.6122 13.7792 12.5646 13.8216 12.5159 13.8162C12.4341 13.8159 12.3523 13.8163 12.2704 13.8167H12.2704H12.2704H12.2703H12.2703H12.2702L12.2698 13.8167H12.2698C12.0988 13.8175 11.9278 13.8183 11.7572 13.8134C11.7197 13.7972 11.7348 13.7599 11.7471 13.7293L11.7471 13.7293L11.7471 13.7293L11.7471 13.7293C11.7499 13.7223 11.7526 13.7157 11.7545 13.7097C11.8453 13.4845 11.9341 13.2584 12.0229 13.0323ZM22.5994 11.1659C22.5405 11.1651 22.4812 11.1644 22.424 11.1788C22.3514 11.1963 22.2954 11.2616 22.294 11.3372C22.2245 12.0491 22.1562 12.7612 22.0878 13.4733L22.0878 13.4734L22.0878 13.4736L22.0878 13.4738L22.0877 13.474L21.9851 14.5421C21.9666 14.6233 22.0321 14.7113 22.1176 14.7073C22.3152 14.709 22.513 14.7086 22.7108 14.7082H22.7108H22.7108H22.7108H22.7109L22.9088 14.7078C22.9795 14.7142 23.0457 14.6598 23.0541 14.5894C23.2627 13.562 23.4704 12.5341 23.678 11.5064L23.6784 11.5046L23.6788 11.5028L23.679 11.5018L23.7076 11.3601C23.727 11.2887 23.7123 11.1796 23.6219 11.17C23.4294 11.1645 23.2366 11.1653 23.0438 11.1662H23.0438H23.0438H23.0438H23.0437C22.9161 11.1667 22.7884 11.1673 22.6607 11.166C22.6404 11.1664 22.6199 11.1661 22.5994 11.1659ZM20.988 11.9932C20.4687 11.8515 19.9281 11.7853 19.3901 11.8138C18.9128 11.8316 18.4177 11.9345 18.0282 12.2262C17.6454 12.5045 17.4026 12.9366 17.2762 13.3858C17.1577 13.8115 17.1102 14.2573 17.1269 14.6987C17.1454 15.0849 17.2486 15.4975 17.5417 15.7695C17.8506 16.0579 18.2861 16.1416 18.6933 16.1774C19.3613 16.2402 20.0434 16.1441 20.6665 15.8958C20.7503 15.8658 20.8333 15.8182 20.8769 15.7372C20.9158 15.6658 20.9238 15.5851 20.9318 15.5048C20.9353 15.4696 20.9388 15.4345 20.9449 15.4002C21.011 14.879 21.0769 14.3578 21.1428 13.8365L21.143 13.8355C21.2089 13.3141 21.2748 12.7926 21.341 12.2712C21.3496 12.2087 21.3513 12.1308 21.2927 12.0914C21.2304 12.0518 21.1585 12.0352 21.087 12.0186C21.0536 12.0109 21.0203 12.0032 20.988 11.9932ZM18.6448 13.8223C18.6886 13.6144 18.7556 13.4031 18.8977 13.24C19.0396 13.0706 19.2633 12.9673 19.4854 12.9885C19.6128 12.9999 19.7387 13.025 19.8635 13.0533L19.6288 14.8815C19.4231 14.9404 19.2044 14.9837 18.9911 14.945C18.8103 14.9155 18.6714 14.7637 18.6216 14.5926C18.547 14.3408 18.5908 14.0736 18.6448 13.8223ZM16.2108 11.887C16.0075 11.8859 15.8042 11.8848 15.6015 11.8927C15.5219 11.9099 15.466 11.9845 15.4599 12.0638C15.4184 12.3625 15.3776 12.6613 15.3367 12.9601L15.3367 12.9601L15.3367 12.9601C15.2331 13.7181 15.1295 14.476 15.0162 15.2325C15.01 15.2711 15.004 15.31 14.9981 15.349C14.9635 15.5762 14.9285 15.8065 14.8189 16.0111C14.7216 16.1993 14.5623 16.3505 14.3778 16.4528C14.2522 16.5277 14.1169 16.5825 13.9818 16.6373L13.9818 16.6373C13.9447 16.6523 13.9075 16.6674 13.8706 16.6828C13.8095 16.7018 13.7716 16.768 13.8009 16.8289C13.8896 17.1067 13.9802 17.3838 14.0711 17.6609L14.0767 17.6758C14.1005 17.7391 14.132 17.8231 14.2128 17.8149C14.4544 17.7735 14.6884 17.6935 14.9155 17.6023C15.2788 17.4484 15.6333 17.2331 15.8651 16.9057C16.0729 16.6023 16.1961 16.25 16.2855 15.8958C16.3874 15.4912 16.4394 15.0775 16.4914 14.6642L16.4914 14.6641L16.4914 14.6641C16.5102 14.5149 16.529 14.3656 16.5501 14.2169C16.6243 13.69 16.6932 13.1623 16.7621 12.6346L16.7621 12.6344L16.7622 12.6341C16.7862 12.4497 16.8103 12.2654 16.8346 12.0811C16.8429 12.0281 16.8459 11.9663 16.8028 11.9267C16.7665 11.8859 16.7116 11.8863 16.6603 11.8867H16.6602H16.6602C16.649 11.8868 16.6379 11.8869 16.6272 11.8865C16.4884 11.8886 16.3496 11.8878 16.2108 11.887ZM22.2777 15.1465C22.4637 15.1032 22.6691 15.1069 22.8393 15.2012C23.0543 15.314 23.194 15.5549 23.1805 15.798C23.162 16.1483 22.908 16.4628 22.5827 16.5821C22.3506 16.671 22.074 16.6594 21.8646 16.5193C21.6971 16.4111 21.5821 16.2205 21.5811 16.019C21.5863 15.618 21.8814 15.2327 22.2777 15.1465ZM24.1367 18.1725C22.1149 18.1334 20.0914 18.2189 18.0777 18.3999C15.8761 18.6051 13.6807 18.8827 11.503 19.2674C10.4493 19.4571 9.39723 19.663 8.35999 19.93C8.53338 20.0249 8.70649 20.1203 8.87959 20.2158C9.06525 20.3182 9.25091 20.4206 9.43689 20.5222C9.64848 20.6382 9.90292 20.6692 10.1369 20.6121C10.2922 20.5742 10.4474 20.5359 10.6025 20.4976C10.902 20.4237 11.2014 20.3497 11.5015 20.2793C13.4516 19.815 15.4281 19.4714 17.411 19.1822C19.2022 18.9216 21.0018 18.7196 22.8061 18.5768C24.265 18.4625 25.7271 18.3836 27.1905 18.3644C27.0307 18.3383 26.8697 18.3237 26.7086 18.309C26.6569 18.3043 26.6052 18.2996 26.5535 18.2945C25.7498 18.2248 24.9434 18.189 24.1367 18.1725Z" fill="#FEFEFE"/>
</svg>
