<svg width="32" height="32" viewBox="0 0 32 32" fill="none" xmlns="http://www.w3.org/2000/svg">
<g clip-path="url(#clip0_69_4057)">
<path d="M19.8325 1.54323L16.7628 0.720703L14.1759 10.375L11.8405 1.65904L8.77075 2.48156L11.2941 11.8985L5.00908 5.61356L2.76191 7.86074L9.65575 14.7546L1.07057 12.4542L0.248047 15.5239L9.62843 18.0374C9.52104 17.5741 9.46422 17.0915 9.46422 16.5956C9.46422 13.0852 12.3099 10.2396 15.8202 10.2396C19.3305 10.2396 22.1762 13.0852 22.1762 16.5956C22.1762 17.0883 22.1201 17.568 22.014 18.0285L30.539 20.3127L31.3615 17.2431L21.9438 14.7196L30.5296 12.419L29.707 9.34936L20.2897 11.8727L26.5747 5.58776L24.3275 3.34059L17.5293 10.1388L19.8325 1.54323Z" fill="white"/>
<path d="M22.005 18.0635C21.7418 19.1761 21.1862 20.1757 20.4238 20.9766L26.5998 27.1526L28.847 24.9055L22.005 18.0635Z" fill="white"/>
<path d="M20.3616 21.042C19.59 21.8301 18.6149 22.4181 17.5215 22.7212L19.7688 31.1083L22.8385 30.2858L20.3616 21.042Z" fill="white"/>
<path d="M17.407 22.7515C16.8996 22.882 16.3679 22.9513 15.8199 22.9513C15.2328 22.9513 14.6643 22.8717 14.1246 22.7227L11.8752 31.1174L14.9449 31.9399L17.407 22.7515Z" fill="white"/>
<path d="M14.0167 22.6913C12.9399 22.3732 11.9822 21.7776 11.2264 20.9873L5.03516 27.1785L7.28233 29.4257L14.0167 22.6913Z" fill="white"/>
<path d="M11.1745 20.9327C10.4316 20.1374 9.89051 19.1512 9.63294 18.0557L1.08008 20.3474L1.9026 23.4171L11.1745 20.9327Z" fill="white"/>
</g>
<defs>
<clipPath id="clip0_69_4057">
<rect width="32" height="32" fill="white"/>
</clipPath>
</defs>
</svg>
