<svg width="30" height="32" viewBox="0 0 30 32" fill="none" xmlns="http://www.w3.org/2000/svg">
<path fill-rule="evenodd" clip-rule="evenodd" d="M6.73865 3.03758C5.68667 3.81835 4.73539 4.74147 3.9096 5.78063C7.28418 5.44809 11.5715 5.99109 16.5489 8.63275C21.8642 11.4536 26.1444 11.549 29.1231 10.9391C28.8528 10.0705 28.5125 9.23568 28.1095 8.44208C24.6996 8.82381 20.3282 8.31853 15.2336 5.61484C11.9985 3.89792 9.14683 3.19067 6.73865 3.03758ZM26.1176 5.43273C23.4248 2.23924 19.5115 0.229492 15.156 0.229492C13.8769 0.229492 12.6358 0.402844 11.4527 0.728599C13.0551 1.19268 14.7574 1.87163 16.5489 2.82248C20.2789 4.802 23.4991 5.43937 26.1176 5.43273ZM29.76 13.988C26.1613 14.7423 21.192 14.5873 15.2336 11.4251C9.66317 8.46877 5.22957 8.506 2.23939 9.21133C2.08505 9.2477 1.93434 9.28594 1.78727 9.32575C1.39578 10.2295 1.08328 11.1798 0.859058 12.1666C1.09854 12.0987 1.346 12.0342 1.60133 11.9739C5.22894 11.1183 10.3544 11.1554 16.5489 14.443C22.1195 17.3993 26.553 17.3621 29.5433 16.6568C29.6457 16.6327 29.7467 16.6077 29.8459 16.5819C29.8568 16.3359 29.8623 16.0882 29.8623 15.8392C29.8623 15.2129 29.8275 14.5951 29.76 13.988ZM29.3658 19.8761C25.8021 20.5375 20.9775 20.2836 15.2336 17.2354C9.66317 14.279 5.22957 14.3163 2.23939 15.0216C1.57566 15.1781 0.978574 15.3688 0.451862 15.57C0.450425 15.6596 0.449707 15.7493 0.449707 15.8392C0.449707 24.4603 7.03393 31.449 15.156 31.449C21.9628 31.449 27.6896 26.5404 29.3658 19.8761Z" fill="#7F57F1"/>
</svg>
