<svg width="35" height="24" viewBox="0 0 35 24" fill="none" xmlns="http://www.w3.org/2000/svg">
<rect x="0.599976" width="33.6" height="24" rx="4" fill="#262626"/>
<g opacity="0.01">
<rect x="7.79993" y="5.76001" width="19.1113" height="12.4657" fill="white"/>
</g>
<rect x="14.8356" y="7.93176" width="5.04145" height="8.12061" fill="#FF5F00"/>
<path fill-rule="evenodd" clip-rule="evenodd" d="M15.3549 11.9928C15.3536 10.4085 16.0911 8.91149 17.3549 7.93326C15.208 6.26927 12.1249 6.51164 10.2723 8.49005C8.4198 10.4685 8.4198 13.5187 10.2723 15.4971C12.1249 17.4755 15.208 17.7179 17.3549 16.0539C16.0907 15.0753 15.3532 13.5777 15.3549 11.9928Z" fill="#EB001B"/>
<path fill-rule="evenodd" clip-rule="evenodd" d="M25.3372 15.0621V15.3996H25.302V15.0621H25.2268V14.9923H25.4172V15.0621H25.3372ZM25.7068 14.9923V15.3996H25.6668V15.0912L25.6044 15.3559H25.5612L25.4988 15.0912V15.3996H25.4572V14.9923H25.5148L25.582 15.2832L25.6492 14.9923H25.7068Z" fill="#F79E1B"/>
<path fill-rule="evenodd" clip-rule="evenodd" d="M25.8276 11.9929C25.8275 13.9701 24.6828 15.7737 22.8795 16.6377C21.0762 17.5018 18.9309 17.2745 17.3549 16.0525C18.6181 15.0734 19.3556 13.5766 19.3556 11.9922C19.3556 10.4077 18.6181 8.91093 17.3549 7.93187C18.9309 6.70985 21.0762 6.48259 22.8795 7.34661C24.6828 8.21064 25.8275 10.0143 25.8276 11.9915V11.9929Z" fill="#F79E1B"/>
</svg>
