<svg width="25" height="25" viewBox="0 0 25 25" fill="none" xmlns="http://www.w3.org/2000/svg">
<path d="M12.5 20.5C10.2667 20.5 8.375 19.725 6.825 18.175C5.275 16.625 4.5 14.7333 4.5 12.5C4.5 10.2667 5.275 8.375 6.825 6.825C8.375 5.275 10.2667 4.5 12.5 4.5C13.65 4.5 14.75 4.73733 15.8 5.212C16.85 5.68667 17.75 6.366 18.5 7.25V4.5H20.5V11.5H13.5V9.5H17.7C17.1667 8.56667 16.4377 7.83333 15.513 7.3C14.5883 6.76667 13.584 6.5 12.5 6.5C10.8333 6.5 9.41667 7.08333 8.25 8.25C7.08333 9.41667 6.5 10.8333 6.5 12.5C6.5 14.1667 7.08333 15.5833 8.25 16.75C9.41667 17.9167 10.8333 18.5 12.5 18.5C13.7833 18.5 14.9417 18.1333 15.975 17.4C17.0083 16.6667 17.7333 15.7 18.15 14.5H20.25C19.7833 16.2667 18.8333 17.7083 17.4 18.825C15.9667 19.9417 14.3333 20.5 12.5 20.5Z" fill="black"/>
</svg>
