<svg width="34" height="24" viewBox="0 0 34 24" fill="none" xmlns="http://www.w3.org/2000/svg">
<rect width="33.6" height="24" rx="4" fill="#4C3494"/>
<path fill-rule="evenodd" clip-rule="evenodd" d="M27.4489 9.10089C26.6596 8.4038 25.5742 8.07802 24.5302 8.17761C24.2693 8.2014 24.0105 8.24782 23.7594 8.32214C22.8393 8.58681 22.0324 9.21722 21.5506 10.0438C20.9029 11.134 20.8253 12.5332 21.3253 13.6956C21.6966 14.5712 22.4063 15.298 23.2764 15.6834C24.2646 16.1211 25.4341 16.1343 26.4311 15.7169C26.9393 15.503 27.4002 15.1764 27.7697 14.7672C28.4445 14.0301 28.8035 13.0243 28.7806 12.0285C28.7747 10.9239 28.29 9.82294 27.4489 9.10089ZM22.9286 10.4834C23.2996 9.93022 23.9115 9.54452 24.5739 9.46227C25.0991 9.39088 25.6499 9.49546 26.105 9.77071C26.5421 10.0301 26.8837 10.437 27.0879 10.9008C27.4912 11.8261 27.4007 12.973 26.7918 13.789C26.503 14.1756 26.0976 14.477 25.6373 14.6256C25.0592 14.8139 24.4082 14.7734 23.8607 14.5081C23.4288 14.3005 23.0678 13.9562 22.8284 13.542C22.2932 12.6119 22.324 11.374 22.9286 10.4834ZM10.4847 8.58505C9.77234 8.2158 8.94335 8.09242 8.15079 8.19758C7.38673 8.29599 6.65234 8.62735 6.08245 9.1473C5.49787 9.67019 5.08749 10.3796 4.91006 11.1425C4.69591 12.0482 4.79461 13.029 5.2044 13.8665C5.58071 14.6488 6.23461 15.2942 7.02276 15.6587C7.80328 16.0218 8.70306 16.1088 9.5432 15.9322C10.3505 15.7642 11.096 15.3212 11.6333 14.6961C12.1456 14.1056 12.4646 13.3557 12.5542 12.5804C12.6409 11.8575 12.5337 11.1111 12.239 10.4445C11.8897 9.64875 11.2608 8.97751 10.4847 8.58505ZM7.31639 9.87964C7.63071 9.65257 8.00349 9.5098 8.38743 9.46045C8.84716 9.40111 9.32569 9.47396 9.74136 9.68165C10.2308 9.92048 10.6235 10.3385 10.8547 10.8297C11.1173 11.3772 11.1887 12.0085 11.0897 12.6054C10.9983 13.15 10.7495 13.6756 10.3518 14.0633C10.0099 14.4085 9.55512 14.6385 9.07541 14.7128C8.4879 14.8054 7.86425 14.6782 7.37191 14.3409C6.86342 14.0017 6.5065 13.4603 6.35228 12.8724C6.20011 12.292 6.2192 11.6645 6.41808 11.0976C6.58728 10.6146 6.89808 10.1775 7.31639 9.87964ZM12.9087 8.37278L12.9084 8.37278C12.9082 8.65321 12.9083 8.93377 12.9083 9.21437C12.9083 9.35469 12.9084 9.49502 12.9084 9.63535C13.0987 9.63579 13.2889 9.63573 13.4792 9.63568C13.5426 9.63566 13.6061 9.63564 13.6695 9.63564C14.1403 10.7187 14.6105 11.802 15.0807 12.8853C15.422 13.6716 15.7633 14.4579 16.1048 15.2441C16.2637 15.6089 16.5977 15.8936 16.9863 15.9837C17.1277 16.0207 17.2736 16.0192 17.4189 16.0177C17.4641 16.0173 17.5092 16.0168 17.5542 16.0175C18.0001 14.967 18.4476 13.9172 18.895 12.8673C19.4284 11.6158 19.9618 10.3643 20.4926 9.11187C20.5062 8.95949 20.5041 8.80562 20.502 8.65176C20.5008 8.55856 20.4995 8.46535 20.5017 8.37248H18.0347V8.37278C18.0345 8.79393 18.0342 9.21478 18.0347 9.63564C18.1421 9.63577 18.2495 9.63573 18.3569 9.63569C18.5001 9.63565 18.6433 9.6356 18.7865 9.63593C18.5901 10.117 18.3942 10.5984 18.1983 11.0797C17.8184 12.0131 17.4384 12.9465 17.0551 13.8784L15.2637 9.63593C15.39 9.63549 15.5164 9.63557 15.6428 9.63564C15.7693 9.63571 15.8957 9.63579 16.0222 9.63535V8.37278C14.9845 8.37219 13.9468 8.37248 12.9087 8.37278Z" fill="white"/>
</svg>
