<svg width="116" height="20" viewBox="0 0 116 20" fill="none" xmlns="http://www.w3.org/2000/svg">
<g clip-path="url(#clip0_69_3928)">
<path d="M12.0249 8.33338L10.7999 4.30005C10.5583 3.50838 9.44159 3.50838 9.20826 4.30005L7.97492 8.33338H4.26659C3.45826 8.33338 3.12492 9.37505 3.78326 9.84172L6.81659 12.0084L5.62492 15.85C5.38326 16.625 6.28326 17.25 6.92493 16.7584L9.99993 14.425L13.0749 16.7667C13.7166 17.2584 14.6166 16.6334 14.3749 15.8584L13.1833 12.0167L16.2166 9.85005C16.8749 9.37505 16.5416 8.34172 15.7333 8.34172H12.0249V8.33338Z" fill="#FF9900"/>
</g>
<g clip-path="url(#clip1_69_3928)">
<path d="M36.0249 8.33338L34.7999 4.30005C34.5583 3.50838 33.4416 3.50838 33.2083 4.30005L31.9749 8.33338H28.2666C27.4583 8.33338 27.1249 9.37505 27.7833 9.84172L30.8166 12.0084L29.6249 15.85C29.3833 16.625 30.2833 17.25 30.9249 16.7584L33.9999 14.425L37.0749 16.7667C37.7166 17.2584 38.6166 16.6334 38.3749 15.8584L37.1833 12.0167L40.2166 9.85005C40.8749 9.37505 40.5416 8.34172 39.7333 8.34172H36.0249V8.33338Z" fill="#FF9900"/>
</g>
<g clip-path="url(#clip2_69_3928)">
<path d="M60.0249 8.33338L58.7999 4.30005C58.5583 3.50838 57.4416 3.50838 57.2083 4.30005L55.9749 8.33338H52.2666C51.4583 8.33338 51.1249 9.37505 51.7833 9.84172L54.8166 12.0084L53.6249 15.85C53.3833 16.625 54.2833 17.25 54.9249 16.7584L57.9999 14.425L61.0749 16.7667C61.7166 17.2584 62.6166 16.6334 62.3749 15.8584L61.1833 12.0167L64.2166 9.85005C64.8749 9.37505 64.5416 8.34172 63.7333 8.34172H60.0249V8.33338Z" fill="#FF9900"/>
</g>
<g clip-path="url(#clip3_69_3928)">
<path d="M84.0249 8.33338L82.7999 4.30005C82.5583 3.50838 81.4416 3.50838 81.2083 4.30005L79.9749 8.33338H76.2666C75.4583 8.33338 75.1249 9.37505 75.7833 9.84172L78.8166 12.0084L77.6249 15.85C77.3833 16.625 78.2833 17.25 78.9249 16.7584L81.9999 14.425L85.0749 16.7667C85.7166 17.2584 86.6166 16.6334 86.3749 15.8584L85.1833 12.0167L88.2166 9.85005C88.8749 9.37505 88.5416 8.34172 87.7333 8.34172H84.0249V8.33338Z" fill="#FF9900"/>
</g>
<g clip-path="url(#clip4_69_3928)">
<path d="M108.025 8.33338L106.8 4.30005C106.558 3.50838 105.442 3.50838 105.208 4.30005L103.975 8.33338H100.267C99.4583 8.33338 99.1249 9.37505 99.7833 9.84172L102.817 12.0084L101.625 15.85C101.383 16.625 102.283 17.25 102.925 16.7584L106 14.425L109.075 16.7667C109.717 17.2584 110.617 16.6334 110.375 15.8584L109.183 12.0167L112.217 9.85005C112.875 9.37505 112.542 8.34172 111.733 8.34172H108.025V8.33338Z" fill="#FF9900"/>
</g>
<defs>
<clipPath id="clip0_69_3928">
<rect width="20" height="20" fill="white"/>
</clipPath>
<clipPath id="clip1_69_3928">
<rect width="20" height="20" fill="white" transform="translate(24)"/>
</clipPath>
<clipPath id="clip2_69_3928">
<rect width="20" height="20" fill="white" transform="translate(48)"/>
</clipPath>
<clipPath id="clip3_69_3928">
<rect width="20" height="20" fill="white" transform="translate(72)"/>
</clipPath>
<clipPath id="clip4_69_3928">
<rect width="20" height="20" fill="white" transform="translate(96)"/>
</clipPath>
</defs>
</svg>
