<svg width="32" height="32" viewBox="0 0 32 32" fill="none" xmlns="http://www.w3.org/2000/svg">
<path fill-rule="evenodd" clip-rule="evenodd" d="M16.0075 31.3269C24.6285 31.3269 31.6172 24.3382 31.6172 15.7172C31.6172 7.09615 24.6285 0.107422 16.0075 0.107422C7.38642 0.107422 0.397705 7.09615 0.397705 15.7172C0.397705 24.3382 7.38642 31.3269 16.0075 31.3269ZM20.8772 7.3791C21.1142 6.53712 20.2971 6.03923 19.5509 6.57087L9.1338 13.992C8.32451 14.5685 8.45181 15.7172 9.32502 15.7172H12.0681V15.6959H17.4143L13.0582 17.2329L11.1378 24.0553C10.9007 24.8972 11.7178 25.3951 12.4641 24.8635L22.8812 17.4424C23.6904 16.8659 23.5631 15.7172 22.6899 15.7172H18.5301L20.8772 7.3791Z" fill="#F15757"/>
</svg>
