<svg width="32" height="32" viewBox="0 0 32 32" fill="none" xmlns="http://www.w3.org/2000/svg">
<path fill-rule="evenodd" clip-rule="evenodd" d="M15.9979 0.732422C24.5784 0.732422 31.5342 7.68821 31.5342 16.2686C31.5342 24.8491 24.5784 31.8049 15.9979 31.8049C7.41747 31.8049 0.46167 24.8491 0.46167 16.2686C0.46167 7.68821 7.41747 0.732422 15.9979 0.732422ZM30.9378 16.2686C30.9378 8.01758 24.249 1.3287 15.9979 1.3287C15.3323 1.3287 14.677 1.37222 14.0344 1.45657C14.4496 1.42028 14.8697 1.40175 15.2942 1.40175C23.1786 1.40175 29.5701 7.79328 29.5701 15.6776C29.5701 23.5619 23.1786 29.9534 15.2942 29.9534C7.82991 29.9534 1.70357 24.2247 1.07208 16.9241C1.41513 24.8711 7.9664 31.2086 15.9979 31.2086C24.249 31.2086 30.9378 24.5198 30.9378 16.2686ZM28.9738 15.6776C28.9738 8.12257 22.8493 1.99804 15.2942 1.99804C14.6808 1.99804 14.0768 2.03842 13.4847 2.11666C13.8493 2.08598 14.2181 2.07034 14.5906 2.07034C21.7789 2.07034 27.6061 7.89758 27.6061 15.0858C27.6061 22.274 21.7789 28.1012 14.5906 28.1012C7.79396 28.1012 2.21407 22.8916 1.62636 16.2476C1.92517 23.5383 7.9302 29.3572 15.2942 29.3572C22.8493 29.3572 28.9738 23.2326 28.9738 15.6776ZM14.5906 2.66662C21.4495 2.66662 27.0098 8.22688 27.0098 15.0858C27.0098 21.9447 21.4495 27.5049 14.5906 27.5049C7.89066 27.5049 2.4298 22.1993 2.18039 15.5603C2.71887 21.5527 7.75452 26.249 13.8871 26.249C20.3787 26.249 25.6414 20.9864 25.6414 14.4947C25.6414 8.00295 20.3787 2.74041 13.8871 2.74041C13.5512 2.74041 13.2187 2.75449 12.89 2.7821C13.446 2.70596 14.0137 2.66662 14.5906 2.66662ZM25.045 14.4947C25.045 8.33232 20.0494 3.3367 13.8871 3.3367C13.3664 3.3367 12.854 3.37235 12.3524 3.44137C12.6263 3.41993 12.9032 3.40901 13.1826 3.40901C18.9783 3.40901 23.6766 8.10726 23.6766 13.9029C23.6766 19.6985 18.9783 24.3968 13.1826 24.3968C7.72767 24.3968 3.24484 20.2346 2.73672 14.9127C2.95655 20.8814 7.86461 25.6527 13.8871 25.6527C20.0494 25.6527 25.045 20.6571 25.045 14.4947ZM13.1826 4.00529C18.6489 4.00529 23.0802 8.43663 23.0802 13.9029C23.0802 19.3692 18.6489 23.8005 13.1826 23.8005C7.82403 23.8005 3.46003 19.5421 3.29017 14.2247C3.74894 18.8954 7.68783 22.5446 12.479 22.5446C17.5786 22.5446 21.7125 18.4106 21.7125 13.3111C21.7125 8.21156 17.5786 4.07759 12.479 4.07759C12.2452 4.07759 12.0133 4.08628 11.7838 4.10336C12.2408 4.03872 12.7078 4.00529 13.1826 4.00529ZM21.1163 13.3111C21.1163 8.54086 17.2492 4.67388 12.479 4.67388C12.0436 4.67388 11.6157 4.7061 11.1976 4.76829C11.3884 4.75462 11.5811 4.74766 11.7755 4.74766C16.1784 4.74766 19.7478 8.31701 19.7478 12.72C19.7478 17.123 16.1784 20.6923 11.7755 20.6923C7.64957 20.6923 4.25574 17.5582 3.84483 13.5409C3.96665 18.2049 7.78568 21.9483 12.479 21.9483C17.2492 21.9483 21.1163 18.0813 21.1163 13.3111ZM11.7755 5.34395C15.8491 5.34395 19.1515 8.6463 19.1515 12.72C19.1515 16.7937 15.8491 20.0961 11.7755 20.0961C7.75358 20.0961 4.48355 16.8772 4.40096 12.8752C4.77249 16.2305 7.61741 18.8401 11.0718 18.8401C14.7787 18.8401 17.7838 15.8351 17.7838 12.1282C17.7838 8.42131 14.7787 5.41625 11.0718 5.41625C10.9301 5.41625 10.7893 5.42064 10.6497 5.42931C11.0168 5.3731 11.3927 5.34395 11.7755 5.34395ZM17.1875 12.1282C17.1875 8.75061 14.4494 6.01254 11.0718 6.01254C10.7326 6.01254 10.3999 6.04015 10.0757 6.09325C10.1723 6.08816 10.2696 6.08558 10.3675 6.08558C13.3782 6.08558 15.819 8.5263 15.819 11.5371C15.819 14.5479 13.3782 16.9887 10.3675 16.9887C7.58349 16.9887 5.28693 14.9018 4.95666 12.2071C4.99894 15.5484 7.72061 18.2439 11.0718 18.2439C14.4494 18.2439 17.1875 15.5058 17.1875 12.1282ZM10.3675 6.68186C13.0489 6.68186 15.2227 8.8556 15.2227 11.5371C15.2227 14.2186 13.0489 16.3924 10.3675 16.3924C7.68595 16.3924 5.51217 14.2186 5.51217 11.5371C5.51217 11.5307 5.51219 11.5242 5.51221 11.5178C5.79139 13.5613 7.54374 15.1358 9.66384 15.1358C11.9781 15.1358 13.8542 13.2596 13.8542 10.9454C13.8542 8.63099 11.9781 6.75492 9.66384 6.75492C9.6115 6.75492 9.55939 6.75587 9.5075 6.75778C9.78659 6.7079 10.074 6.68186 10.3675 6.68186ZM13.2579 10.9454C13.2579 8.96036 11.6488 7.3512 9.66384 7.3512C7.67885 7.3512 6.06971 8.96036 6.06971 10.9454C6.06971 12.9303 7.67885 14.5394 9.66384 14.5394C11.6488 14.5394 13.2579 12.9303 13.2579 10.9454Z" fill="#1A1414"/>
</svg>
