<svg width="20" height="20" viewBox="0 0 20 20" fill="none" xmlns="http://www.w3.org/2000/svg">
<path d="M18.88 0.150024L17.68 0.550024C15.6234 1.26457 13.4273 1.48384 11.27 1.19002C9.00314 0.838236 6.68292 1.15084 4.59 2.09002C3.48048 2.56247 2.50675 3.30494 1.75747 4.24983C1.00819 5.19473 0.507163 6.31203 0.299997 7.50002C0.0892642 8.64248 0.110821 9.81567 0.36338 10.9496C0.615939 12.0836 1.09433 13.155 1.77 14.1C1.71 14.31 1.65 14.52 1.6 14.73C1.19384 16.4571 0.992451 18.2259 0.999997 20H3C3.094 18.5479 3.29116 17.1042 3.59 15.68C4.97743 16.4292 6.53335 16.8113 8.11 16.79C9.58047 16.789 11.0358 16.4932 12.39 15.92C20 12.67 19 1.86002 19 1.41002L18.88 0.150024ZM11.61 14.08C9 15.19 5.88 15 4.13 13.63C4.42576 12.6411 4.83164 11.6884 5.34 10.79C5.73519 10.1434 6.20142 9.54304 6.73 9.00002C7.2701 8.45121 7.8784 7.97398 8.54 7.58002C9.90707 6.76258 11.4232 6.22547 13 6.00002V5.00002C11.1858 4.93722 9.38269 5.30744 7.74 6.08002C6.06042 6.89957 4.63602 8.16148 3.62 9.73002C3.24317 10.3291 2.90901 10.954 2.62 11.6C2.15652 10.4144 2.02514 9.12478 2.24 7.87002C2.38077 6.99156 2.7429 6.1634 3.29225 5.46359C3.8416 4.76378 4.56008 4.21536 5.38 3.87002C6.57561 3.31118 7.88023 3.0243 9.2 3.03002C9.82 3.03002 10.43 3.09002 11.07 3.14002C13.0743 3.39863 15.1093 3.27992 17.07 2.79002C17 5.55002 16.5 12 11.61 14.08Z" fill="#8E8E8E"/>
</svg>
